<?xml version="1.0" encoding="UTF-8"?>
<svg xmlns="http://www.w3.org/2000/svg" xmlns:xlink="http://www.w3.org/1999/xlink" width="132.677" height="175.143" viewBox="0 0 132.677 175.143">
<defs>
<g>
<g id="glyph-0-0">
<path d="M 2.71875 -5.734375 C 2.71875 -5.953125 2.71875 -5.96875 2.5 -5.96875 C 1.9375 -5.40625 1.109375 -5.40625 0.828125 -5.40625 L 0.828125 -5.125 C 1 -5.125 1.546875 -5.125 2.03125 -5.359375 L 2.03125 -0.71875 C 2.03125 -0.390625 2.015625 -0.28125 1.171875 -0.28125 L 0.890625 -0.28125 L 0.890625 0 C 1.203125 -0.03125 2.015625 -0.03125 2.375 -0.03125 C 2.75 -0.03125 3.546875 -0.03125 3.875 0 L 3.875 -0.28125 L 3.59375 -0.28125 C 2.75 -0.28125 2.71875 -0.390625 2.71875 -0.71875 Z M 2.71875 -5.734375 "/>
</g>
<g id="glyph-0-1">
<path d="M 4.25 -2.875 C 4.25 -3.46875 4.21875 -4.25 3.90625 -4.921875 C 3.5 -5.765625 2.828125 -5.96875 2.3125 -5.96875 C 1.765625 -5.96875 1.078125 -5.765625 0.6875 -4.890625 C 0.40625 -4.28125 0.359375 -3.546875 0.359375 -2.875 C 0.359375 -2.28125 0.375 -1.421875 0.765625 -0.703125 C 1.1875 0.046875 1.890625 0.203125 2.296875 0.203125 C 2.875 0.203125 3.546875 -0.046875 3.921875 -0.875 C 4.1875 -1.484375 4.25 -2.15625 4.25 -2.875 Z M 2.3125 -0.03125 C 2.03125 -0.03125 1.390625 -0.15625 1.21875 -1.171875 C 1.125 -1.6875 1.125 -2.46875 1.125 -2.984375 C 1.125 -3.59375 1.125 -4.296875 1.234375 -4.796875 C 1.421875 -5.59375 1.984375 -5.75 2.296875 -5.75 C 2.640625 -5.75 3.203125 -5.5625 3.375 -4.734375 C 3.46875 -4.25 3.46875 -3.546875 3.46875 -2.984375 C 3.46875 -2.421875 3.46875 -1.671875 3.375 -1.140625 C 3.1875 -0.109375 2.53125 -0.03125 2.3125 -0.03125 Z M 2.3125 -0.03125 "/>
</g>
<g id="glyph-0-2">
<path d="M 4.09375 -6.21875 C 4.015625 -6.375 3.96875 -6.421875 3.828125 -6.421875 C 3.703125 -6.421875 3.65625 -6.375 3.59375 -6.25 L 0.5 -0.21875 C 0.453125 -0.140625 0.4375 -0.09375 0.4375 -0.078125 C 0.4375 0 0.5 0 0.640625 0 L 7.015625 0 C 7.171875 0 7.234375 0 7.234375 -0.078125 C 7.234375 -0.09375 7.234375 -0.109375 7.1875 -0.203125 Z M 3.53125 -5.53125 L 6.03125 -0.6875 L 1.046875 -0.6875 Z M 3.53125 -5.53125 "/>
</g>
<g id="glyph-1-0">
<path d="M 4.765625 -1.34375 C 4.859375 -1.34375 5.015625 -1.34375 5.015625 -1.5 C 5.015625 -1.65625 4.859375 -1.65625 4.765625 -1.65625 L 1 -1.65625 C 0.890625 -1.65625 0.75 -1.65625 0.75 -1.5 C 0.75 -1.34375 0.890625 -1.34375 1 -1.34375 Z M 4.765625 -1.34375 "/>
</g>
<g id="glyph-2-0">
<path d="M 3.21875 -1.125 L 3 -1.125 C 2.984375 -1.03125 2.921875 -0.640625 2.84375 -0.578125 C 2.796875 -0.53125 2.3125 -0.53125 2.21875 -0.53125 L 1.109375 -0.53125 L 1.875 -1.15625 C 2.078125 -1.328125 2.609375 -1.703125 2.796875 -1.890625 C 2.96875 -2.0625 3.21875 -2.375 3.21875 -2.796875 C 3.21875 -3.546875 2.546875 -3.984375 1.734375 -3.984375 C 0.96875 -3.984375 0.4375 -3.46875 0.4375 -2.90625 C 0.4375 -2.609375 0.6875 -2.5625 0.75 -2.5625 C 0.90625 -2.5625 1.078125 -2.671875 1.078125 -2.890625 C 1.078125 -3.015625 1 -3.21875 0.734375 -3.21875 C 0.875 -3.515625 1.234375 -3.75 1.65625 -3.75 C 2.28125 -3.75 2.609375 -3.28125 2.609375 -2.796875 C 2.609375 -2.375 2.328125 -1.9375 1.921875 -1.546875 L 0.5 -0.25 C 0.4375 -0.1875 0.4375 -0.1875 0.4375 0 L 3.03125 0 Z M 3.21875 -1.125 "/>
</g>
<g id="glyph-2-1">
<path d="M 2.140625 -3.796875 C 2.140625 -3.984375 2.125 -3.984375 1.9375 -3.984375 C 1.546875 -3.59375 0.9375 -3.59375 0.71875 -3.59375 L 0.71875 -3.359375 C 0.875 -3.359375 1.28125 -3.359375 1.640625 -3.53125 L 1.640625 -0.515625 C 1.640625 -0.3125 1.640625 -0.234375 1.015625 -0.234375 L 0.765625 -0.234375 L 0.765625 0 C 1.09375 -0.03125 1.5625 -0.03125 1.890625 -0.03125 C 2.21875 -0.03125 2.6875 -0.03125 3.015625 0 L 3.015625 -0.234375 L 2.765625 -0.234375 C 2.140625 -0.234375 2.140625 -0.3125 2.140625 -0.515625 Z M 2.140625 -3.796875 "/>
</g>
<g id="glyph-2-2">
<path d="M 0.96875 -1.984375 C 0.984375 -2.28125 1 -2.78125 1.203125 -3.140625 C 1.46875 -3.609375 1.859375 -3.78125 2.21875 -3.78125 C 2.359375 -3.78125 2.640625 -3.765625 2.78125 -3.59375 C 2.5625 -3.546875 2.515625 -3.40625 2.515625 -3.296875 C 2.515625 -3.140625 2.625 -3.015625 2.8125 -3.015625 C 2.984375 -3.015625 3.09375 -3.125 3.09375 -3.3125 C 3.09375 -3.6875 2.828125 -3.984375 2.21875 -3.984375 C 1.28125 -3.984375 0.375 -3.171875 0.375 -1.890625 C 0.375 -0.4375 1.046875 0.125 1.84375 0.125 C 2.078125 0.125 2.484375 0.09375 2.84375 -0.265625 C 3.046875 -0.453125 3.265625 -0.6875 3.265625 -1.21875 C 3.265625 -1.421875 3.25 -1.8125 2.890625 -2.140625 C 2.671875 -2.34375 2.40625 -2.546875 1.90625 -2.546875 C 1.484375 -2.546875 1.171875 -2.328125 0.96875 -1.984375 Z M 1.84375 -0.09375 C 1 -0.09375 1 -1.125 1 -1.359375 C 1 -1.859375 1.328125 -2.359375 1.875 -2.359375 C 2.1875 -2.359375 2.359375 -2.234375 2.5 -2.046875 C 2.671875 -1.8125 2.671875 -1.53125 2.671875 -1.21875 C 2.671875 -0.8125 2.65625 -0.609375 2.453125 -0.359375 C 2.3125 -0.1875 2.125 -0.09375 1.84375 -0.09375 Z M 1.84375 -0.09375 "/>
</g>
<g id="glyph-2-3">
<path d="M 1.015625 -3.328125 C 1.21875 -3.265625 1.421875 -3.25 1.625 -3.25 C 1.765625 -3.25 2.09375 -3.25 2.46875 -3.453125 C 2.578125 -3.515625 2.9375 -3.765625 2.9375 -3.890625 C 2.9375 -3.96875 2.890625 -3.984375 2.859375 -3.984375 C 2.84375 -3.984375 2.84375 -3.984375 2.765625 -3.953125 C 2.5625 -3.875 2.25 -3.78125 1.859375 -3.78125 C 1.5625 -3.78125 1.25 -3.84375 0.96875 -3.9375 C 0.921875 -3.96875 0.890625 -3.984375 0.875 -3.984375 C 0.78125 -3.984375 0.78125 -3.90625 0.78125 -3.8125 L 0.78125 -2.015625 C 0.78125 -1.921875 0.78125 -1.84375 0.890625 -1.84375 C 0.953125 -1.84375 0.96875 -1.875 1 -1.921875 C 1.15625 -2.109375 1.421875 -2.3125 1.890625 -2.3125 C 2.625 -2.3125 2.625 -1.421875 2.625 -1.234375 C 2.625 -1 2.609375 -0.65625 2.40625 -0.40625 C 2.21875 -0.1875 1.9375 -0.09375 1.6875 -0.09375 C 1.28125 -0.09375 0.859375 -0.3125 0.71875 -0.671875 C 1.015625 -0.671875 1.046875 -0.90625 1.046875 -0.96875 C 1.046875 -1.140625 0.921875 -1.28125 0.734375 -1.28125 C 0.6875 -1.28125 0.4375 -1.25 0.4375 -0.953125 C 0.4375 -0.40625 0.953125 0.125 1.703125 0.125 C 2.53125 0.125 3.21875 -0.453125 3.21875 -1.203125 C 3.21875 -1.890625 2.671875 -2.5 1.890625 -2.5 C 1.515625 -2.5 1.203125 -2.375 1.015625 -2.21875 Z M 1.015625 -3.328125 "/>
</g>
<g id="glyph-2-4">
<path d="M 3.375 -0.984375 L 3.375 -1.21875 L 2.671875 -1.21875 L 2.671875 -3.859375 C 2.671875 -4 2.671875 -4.046875 2.53125 -4.046875 C 2.421875 -4.046875 2.40625 -4.015625 2.359375 -3.953125 L 0.28125 -1.21875 L 0.28125 -0.984375 L 2.140625 -0.984375 L 2.140625 -0.5 C 2.140625 -0.3125 2.140625 -0.234375 1.640625 -0.234375 L 1.453125 -0.234375 L 1.453125 0 C 1.578125 0 2.140625 -0.03125 2.40625 -0.03125 C 2.671875 -0.03125 3.234375 0 3.34375 0 L 3.34375 -0.234375 L 3.171875 -0.234375 C 2.671875 -0.234375 2.671875 -0.3125 2.671875 -0.5 L 2.671875 -0.984375 Z M 2.171875 -3.390625 L 2.171875 -1.21875 L 0.53125 -1.21875 Z M 2.171875 -3.390625 "/>
</g>
<g id="glyph-2-5">
<path d="M 1.765625 -1.984375 C 2.265625 -1.984375 2.609375 -1.640625 2.609375 -1.03125 C 2.609375 -0.375 2.21875 -0.09375 1.78125 -0.09375 C 1.609375 -0.09375 1 -0.125 0.734375 -0.46875 C 0.96875 -0.5 1.0625 -0.65625 1.0625 -0.8125 C 1.0625 -1.015625 0.921875 -1.15625 0.71875 -1.15625 C 0.5625 -1.15625 0.375 -1.046875 0.375 -0.796875 C 0.375 -0.203125 1.03125 0.125 1.796875 0.125 C 2.6875 0.125 3.265625 -0.4375 3.265625 -1.03125 C 3.265625 -1.46875 2.9375 -1.9375 2.21875 -2.109375 C 2.703125 -2.265625 3.078125 -2.65625 3.078125 -3.140625 C 3.078125 -3.625 2.515625 -3.984375 1.796875 -3.984375 C 1.09375 -3.984375 0.5625 -3.65625 0.5625 -3.171875 C 0.5625 -2.90625 0.765625 -2.84375 0.890625 -2.84375 C 1.046875 -2.84375 1.203125 -2.9375 1.203125 -3.15625 C 1.203125 -3.34375 1.078125 -3.453125 0.90625 -3.46875 C 1.1875 -3.78125 1.734375 -3.78125 1.796875 -3.78125 C 2.09375 -3.78125 2.484375 -3.640625 2.484375 -3.140625 C 2.484375 -2.8125 2.296875 -2.234375 1.6875 -2.203125 C 1.578125 -2.203125 1.421875 -2.1875 1.375 -2.1875 C 1.3125 -2.171875 1.25 -2.171875 1.25 -2.078125 C 1.25 -1.984375 1.3125 -1.984375 1.40625 -1.984375 Z M 1.765625 -1.984375 "/>
</g>
<g id="glyph-3-0">
<path d="M 2.71875 -3.3125 L 4.265625 -3.3125 C 4.390625 -3.3125 4.71875 -3.3125 4.71875 -3.625 C 4.71875 -3.859375 4.515625 -3.859375 4.34375 -3.859375 L 1.765625 -3.859375 C 1.546875 -3.859375 1.234375 -3.859375 0.8125 -3.4375 C 0.5625 -3.203125 0.234375 -2.703125 0.234375 -2.640625 C 0.234375 -2.53125 0.34375 -2.53125 0.375 -2.53125 C 0.4375 -2.53125 0.453125 -2.5625 0.515625 -2.640625 C 0.953125 -3.3125 1.5 -3.3125 1.671875 -3.3125 L 2.4375 -3.3125 L 1.515625 -0.34375 C 1.46875 -0.203125 1.46875 -0.1875 1.46875 -0.140625 C 1.46875 -0.015625 1.546875 0.109375 1.75 0.109375 C 2.015625 0.109375 2.09375 -0.109375 2.140625 -0.28125 Z M 2.71875 -3.3125 "/>
</g>
<g id="glyph-4-0">
<path d="M -6.21875 -4.09375 C -6.375 -4.015625 -6.421875 -3.96875 -6.421875 -3.828125 C -6.421875 -3.703125 -6.375 -3.65625 -6.25 -3.59375 L -0.21875 -0.5 C -0.140625 -0.453125 -0.09375 -0.4375 -0.078125 -0.4375 C 0 -0.4375 0 -0.5 0 -0.640625 L 0 -7.015625 C 0 -7.171875 0 -7.234375 -0.078125 -7.234375 C -0.09375 -7.234375 -0.109375 -7.234375 -0.203125 -7.1875 Z M -5.53125 -3.53125 L -0.6875 -6.03125 L -0.6875 -1.046875 Z M -5.53125 -3.53125 "/>
</g>
<g id="glyph-5-0">
<path d="M -3.03125 -2.8125 L -3.03125 -3.734375 C -3.03125 -4.375 -2.921875 -4.5 -2.625 -4.5 C -2.5625 -4.5 -2.375 -4.46875 -2.21875 -4.4375 C -2.171875 -4.421875 -2.125 -4.40625 -2.09375 -4.40625 C -2.09375 -4.40625 -1.984375 -4.40625 -1.984375 -4.53125 C -1.984375 -4.640625 -2.046875 -4.640625 -2.171875 -4.6875 L -4.0625 -5.15625 C -4.1875 -5.1875 -4.203125 -5.1875 -4.25 -5.1875 C -4.3125 -5.1875 -4.359375 -5.140625 -4.359375 -5.0625 C -4.359375 -4.96875 -4.3125 -4.953125 -4.140625 -4.921875 C -3.421875 -4.734375 -3.3125 -4.453125 -3.3125 -3.734375 L -3.3125 -2.890625 C -3.859375 -3.015625 -5.5625 -3.4375 -5.671875 -3.484375 C -5.796875 -3.546875 -5.828125 -3.609375 -5.828125 -3.90625 L -5.828125 -5.21875 C -5.828125 -6.34375 -5.546875 -6.59375 -4.828125 -6.59375 C -4.546875 -6.59375 -4.28125 -6.546875 -4.21875 -6.546875 C -4.140625 -6.546875 -4.078125 -6.59375 -4.078125 -6.671875 C -4.078125 -6.78125 -4.140625 -6.796875 -4.3125 -6.8125 L -5.96875 -7 C -6.09375 -7 -6.09375 -6.90625 -6.09375 -6.734375 L -6.09375 -2.109375 C -6.09375 -1.953125 -6.09375 -1.84375 -5.9375 -1.84375 C -5.828125 -1.84375 -5.828125 -1.9375 -5.828125 -2.125 C -5.828125 -2.15625 -5.828125 -2.328125 -5.796875 -2.46875 C -5.78125 -2.65625 -5.734375 -2.671875 -5.65625 -2.671875 C -5.625 -2.671875 -5.609375 -2.671875 -5.453125 -2.625 L -0.6875 -1.4375 C -0.359375 -1.359375 -0.28125 -1.34375 -0.28125 -0.65625 C -0.28125 -0.5 -0.28125 -0.390625 -0.109375 -0.390625 C 0 -0.390625 0 -0.484375 0 -0.640625 L 0 -5.375 C 0 -5.546875 0 -5.5625 -0.03125 -5.59375 C -0.046875 -5.609375 -0.046875 -5.625 -0.171875 -5.671875 C -0.40625 -5.78125 -2.109375 -6.546875 -2.203125 -6.546875 C -2.265625 -6.546875 -2.3125 -6.5 -2.3125 -6.421875 C -2.3125 -6.34375 -2.3125 -6.34375 -2.09375 -6.25 C -0.84375 -5.6875 -0.28125 -5.3125 -0.28125 -3.828125 L -0.28125 -2.453125 C -0.28125 -2.328125 -0.28125 -2.3125 -0.28125 -2.28125 C -0.296875 -2.1875 -0.3125 -2.15625 -0.375 -2.15625 C -0.390625 -2.15625 -0.40625 -2.15625 -0.578125 -2.203125 Z M -3.03125 -2.8125 "/>
</g>
<g id="glyph-5-1">
<path d="M -6.375 -4.03125 C -6.5 -4.09375 -6.515625 -4.09375 -6.53125 -4.09375 C -6.640625 -4.09375 -6.734375 -4 -6.734375 -3.90625 C -6.734375 -3.78125 -6.65625 -3.734375 -6.640625 -3.734375 L 1.890625 -0.5625 C 2.015625 -0.515625 2.03125 -0.515625 2.046875 -0.515625 C 2.15625 -0.515625 2.25 -0.59375 2.25 -0.703125 C 2.25 -0.796875 2.203125 -0.859375 2.03125 -0.921875 Z M -6.375 -4.03125 "/>
</g>
<g id="glyph-6-0">
<path d="M -1.359375 -2.8125 C -1.359375 -2.9375 -1.359375 -2.984375 -1.5 -2.984375 C -1.953125 -2.984375 -2.671875 -2.734375 -2.671875 -1.734375 C -2.671875 -0.890625 -2.03125 -0.28125 -1.3125 -0.28125 C -0.5625 -0.28125 0.0625 -0.96875 0.0625 -1.8125 C 0.0625 -2.6875 -0.59375 -2.984375 -0.71875 -2.984375 C -0.75 -2.984375 -0.8125 -2.96875 -0.8125 -2.875 C -0.8125 -2.796875 -0.78125 -2.78125 -0.703125 -2.765625 C -0.265625 -2.578125 -0.15625 -2.125 -0.15625 -1.859375 C -0.15625 -1.53125 -0.296875 -1.25 -0.515625 -1.078125 C -0.796875 -0.859375 -1.1875 -0.859375 -1.359375 -0.859375 Z M -1.53125 -0.875 C -2.328125 -0.9375 -2.484375 -1.484375 -2.484375 -1.734375 C -2.484375 -2.5 -1.703125 -2.546875 -1.53125 -2.546875 Z M -1.53125 -0.875 "/>
</g>
<g id="glyph-6-1">
<path d="M -1.40625 -2.125 L -2.015625 -2.71875 C -2.328125 -3.03125 -2.34375 -3.359375 -2.34375 -3.515625 L -2.578125 -3.515625 C -2.578125 -3.4375 -2.5625 -3.171875 -2.5625 -2.984375 C -2.5625 -2.765625 -2.578125 -2.40625 -2.578125 -2.375 L -2.34375 -2.375 C -2.328125 -2.4375 -2.28125 -2.484375 -2.21875 -2.484375 C -2.109375 -2.484375 -2.0625 -2.4375 -1.859375 -2.265625 L -1.5625 -1.96875 L -2.125 -1.453125 C -2.171875 -1.40625 -2.1875 -1.390625 -2.21875 -1.390625 C -2.3125 -1.390625 -2.34375 -1.484375 -2.34375 -1.5625 L -2.578125 -1.5625 C -2.5625 -1.40625 -2.5625 -1 -2.5625 -0.859375 C -2.5625 -0.734375 -2.5625 -0.375 -2.578125 -0.25 L -2.34375 -0.25 C -2.34375 -0.59375 -2.328125 -0.703125 -2.171875 -0.84375 L -1.328125 -1.640625 C -1.28125 -1.671875 -1.28125 -1.6875 -1.265625 -1.6875 C -1.25 -1.6875 -0.6875 -1.140625 -0.625 -1.078125 C -0.46875 -0.921875 -0.234375 -0.703125 -0.234375 -0.203125 L 0 -0.203125 C 0 -0.28125 -0.03125 -0.546875 -0.03125 -0.734375 C -0.03125 -0.828125 -0.015625 -1.234375 0 -1.359375 L -0.234375 -1.359375 C -0.234375 -1.28125 -0.28125 -1.25 -0.359375 -1.25 C -0.46875 -1.25 -0.546875 -1.3125 -0.578125 -1.34375 C -0.765625 -1.5 -0.9375 -1.671875 -1.09375 -1.84375 L -0.53125 -2.375 C -0.390625 -2.484375 -0.390625 -2.484375 -0.359375 -2.484375 C -0.296875 -2.484375 -0.234375 -2.4375 -0.234375 -2.328125 L 0 -2.328125 C -0.015625 -2.53125 -0.03125 -2.984375 -0.03125 -3.03125 C -0.03125 -3.25 0 -3.5625 0 -3.640625 L -0.234375 -3.640625 C -0.234375 -3.34375 -0.234375 -3.1875 -0.40625 -3.03125 Z M -1.40625 -2.125 "/>
</g>
<g id="glyph-6-2">
<path d="M -1.78125 -2.84375 C -2.34375 -2.84375 -2.671875 -2.28125 -2.671875 -1.609375 C -2.671875 -1.3125 -2.640625 -0.609375 -2.140625 -0.609375 C -1.96875 -0.609375 -1.84375 -0.71875 -1.84375 -0.90625 C -1.84375 -1.078125 -1.96875 -1.1875 -2.125 -1.1875 C -2.234375 -1.1875 -2.34375 -1.140625 -2.390625 -1.03125 C -2.484375 -1.234375 -2.484375 -1.53125 -2.484375 -1.59375 C -2.484375 -2.015625 -2.21875 -2.34375 -1.765625 -2.34375 L -1.609375 -2.34375 C -1.609375 -2.078125 -1.59375 -1.59375 -1.4375 -1.15625 C -1.296875 -0.765625 -1.03125 -0.390625 -0.625 -0.390625 C -0.09375 -0.390625 0.0625 -1.015625 0.0625 -1.484375 C 0.0625 -1.984375 -0.1875 -2.28125 -0.421875 -2.421875 C -0.109375 -2.453125 0.03125 -2.65625 0.03125 -2.859375 C 0.03125 -2.890625 0.03125 -3.53125 -0.53125 -3.53125 L -0.875 -3.53125 L -0.875 -3.3125 L -0.546875 -3.3125 C -0.484375 -3.3125 -0.21875 -3.3125 -0.21875 -3.078125 C -0.21875 -2.84375 -0.484375 -2.84375 -0.546875 -2.84375 Z M -0.84375 -2.34375 C -0.234375 -2.34375 -0.125 -1.734375 -0.125 -1.53125 C -0.125 -1.21875 -0.328125 -0.90625 -0.625 -0.90625 C -0.96875 -0.90625 -1.40625 -1.234375 -1.4375 -2.34375 Z M -0.84375 -2.34375 "/>
</g>
<g id="glyph-6-3">
<path d="M -2.40625 -2.453125 C -2.375 -2.390625 -2.296875 -2.328125 -2.171875 -2.328125 C -2.015625 -2.328125 -1.875 -2.4375 -1.875 -2.609375 C -1.875 -2.796875 -2.015625 -2.90625 -2.171875 -2.90625 C -2.65625 -2.90625 -2.671875 -2.28125 -2.671875 -1.890625 C -2.671875 -0.796875 -1.875 -0.328125 -1.296875 -0.328125 C -0.546875 -0.328125 0.0625 -0.984375 0.0625 -1.828125 C 0.0625 -2.78125 -0.65625 -2.984375 -0.71875 -2.984375 C -0.796875 -2.984375 -0.796875 -2.890625 -0.796875 -2.875 C -0.796875 -2.796875 -0.765625 -2.78125 -0.71875 -2.765625 C -0.625 -2.71875 -0.453125 -2.65625 -0.3125 -2.453125 C -0.21875 -2.328125 -0.15625 -2.125 -0.15625 -1.890625 C -0.15625 -1.4375 -0.484375 -0.890625 -1.296875 -0.890625 C -1.5625 -0.890625 -1.890625 -0.9375 -2.140625 -1.15625 C -2.453125 -1.421875 -2.453125 -1.734375 -2.453125 -1.921875 C -2.453125 -2.09375 -2.453125 -2.296875 -2.40625 -2.453125 Z M -2.40625 -2.453125 "/>
</g>
<g id="glyph-6-4">
<path d="M -2.34375 -1.296875 L -2.34375 -2.28125 L -2.578125 -2.28125 L -2.578125 -1.296875 L -3.6875 -1.296875 L -3.6875 -1.078125 C -3.140625 -1.078125 -2.5625 -0.8125 -2.53125 -0.21875 L -2.34375 -0.21875 L -2.34375 -0.8125 L -0.75 -0.8125 C -0.125 -0.8125 0.0625 -1.28125 0.0625 -1.6875 C 0.0625 -2.09375 -0.265625 -2.40625 -0.75 -2.40625 L -1.078125 -2.40625 L -1.078125 -2.171875 L -0.765625 -2.171875 C -0.34375 -2.171875 -0.15625 -1.953125 -0.15625 -1.734375 C -0.15625 -1.296875 -0.640625 -1.296875 -0.75 -1.296875 Z M -2.34375 -1.296875 "/>
</g>
<g id="glyph-7-0">
<path d="M 6.5 -5.328125 C 6.5 -5.484375 6.5 -5.578125 6.328125 -5.578125 C 6.25 -5.578125 6.234375 -5.578125 6.140625 -5.5 L 5.625 -5.03125 C 5.265625 -5.28125 4.75 -5.578125 3.921875 -5.578125 C 1.75 -5.578125 0.546875 -4.3125 0.546875 -2.734375 C 0.546875 -1.171875 1.734375 0.109375 3.9375 0.109375 C 5.5 0.109375 6.5 -0.84375 6.5 -1.8125 C 6.5 -2 6.421875 -2 6.28125 -2 C 6.078125 -2 6.0625 -1.96875 6.0625 -1.765625 C 6 -0.9375 5.15625 -0.296875 4.109375 -0.296875 C 3.234375 -0.296875 2.640625 -0.625 2.328125 -0.96875 C 1.96875 -1.359375 1.8125 -1.90625 1.8125 -2.734375 C 1.8125 -3.078125 1.828125 -3.953125 2.3125 -4.5 C 2.890625 -5.109375 3.71875 -5.15625 4.09375 -5.15625 C 4.90625 -5.15625 5.78125 -4.65625 5.96875 -3.53125 C 6 -3.375 6.0625 -3.375 6.234375 -3.375 C 6.46875 -3.375 6.5 -3.375 6.5 -3.625 Z M 6.5 -5.328125 "/>
</g>
<g id="glyph-7-1">
<path d="M 6.5 -1.78125 L 7.1875 -1.78125 L 7.1875 -2.203125 C 6.59375 -2.171875 6.46875 -2.171875 5.765625 -2.171875 C 5.40625 -2.171875 4.40625 -2.171875 4.09375 -2.203125 L 4.09375 -1.78125 L 5.3125 -1.78125 L 5.3125 -1 C 5.3125 -0.84375 5.3125 -0.609375 4.9375 -0.453125 C 4.640625 -0.3125 4.3125 -0.296875 4.171875 -0.296875 C 3.296875 -0.296875 2.703125 -0.609375 2.40625 -0.90625 C 2.0625 -1.25 1.8125 -1.71875 1.8125 -2.734375 C 1.8125 -3.109375 1.84375 -3.96875 2.3125 -4.5 C 2.890625 -5.109375 3.71875 -5.15625 4.09375 -5.15625 C 4.90625 -5.15625 5.78125 -4.65625 5.96875 -3.53125 C 6 -3.375 6.0625 -3.375 6.234375 -3.375 C 6.46875 -3.375 6.5 -3.375 6.5 -3.625 L 6.5 -5.328125 C 6.5 -5.484375 6.5 -5.578125 6.328125 -5.578125 C 6.25 -5.578125 6.234375 -5.578125 6.140625 -5.5 L 5.625 -5.03125 C 5.265625 -5.28125 4.75 -5.578125 3.921875 -5.578125 C 1.75 -5.578125 0.546875 -4.3125 0.546875 -2.734375 C 0.546875 -1.25 1.640625 0.109375 3.953125 0.109375 C 4.796875 0.109375 5.359375 -0.0625 5.625 -0.359375 C 5.84375 -0.1875 6.296875 0 6.359375 0 C 6.5 0 6.5 -0.140625 6.5 -0.25 Z M 6.5 -1.78125 "/>
</g>
<g id="glyph-7-2">
<path d="M 1.84375 -3.125 L 3.078125 -3.125 L 3.078125 -3.53125 L 1.84375 -3.53125 L 1.84375 -5.0625 L 1.390625 -5.0625 C 1.390625 -4.265625 0.984375 -3.46875 0.1875 -3.453125 L 0.1875 -3.125 L 0.875 -3.125 L 0.875 -0.984375 C 0.875 -0.15625 1.515625 0.0625 2.1875 0.0625 C 2.796875 0.0625 3.25 -0.34375 3.25 -0.984375 L 3.25 -1.390625 L 2.796875 -1.390625 L 2.796875 -1 C 2.796875 -0.453125 2.5 -0.3125 2.3125 -0.3125 C 1.84375 -0.3125 1.84375 -0.734375 1.84375 -0.953125 Z M 1.84375 -3.125 "/>
</g>
<g id="glyph-7-3">
<path d="M 1.8125 -1.703125 C 1.8125 -2.328125 2.0625 -3.234375 2.828125 -3.265625 C 2.828125 -3.25 2.703125 -3.125 2.703125 -2.90625 C 2.703125 -2.578125 2.9375 -2.375 3.234375 -2.375 C 3.515625 -2.375 3.75 -2.59375 3.75 -2.90625 C 3.75 -3.34375 3.3125 -3.59375 2.84375 -3.59375 C 2.171875 -3.59375 1.84375 -3.03125 1.71875 -2.734375 L 1.71875 -3.59375 L 0.359375 -3.53125 L 0.359375 -3.109375 C 0.84375 -3.109375 0.890625 -3.109375 0.890625 -2.8125 L 0.890625 -0.421875 L 0.359375 -0.421875 L 0.359375 0 C 0.828125 -0.03125 0.90625 -0.03125 1.390625 -0.03125 C 1.84375 -0.03125 1.859375 -0.03125 2.46875 0 L 2.46875 -0.421875 L 1.8125 -0.421875 Z M 1.8125 -1.703125 "/>
</g>
<g id="glyph-7-4">
<path d="M 3.15625 -3.53125 L 3.15625 -3.109375 C 3.625 -3.109375 3.6875 -3.109375 3.6875 -2.8125 L 3.6875 -1.296875 C 3.6875 -0.6875 3.265625 -0.28125 2.609375 -0.28125 C 1.96875 -0.28125 1.9375 -0.46875 1.9375 -0.875 L 1.9375 -3.59375 L 0.453125 -3.53125 L 0.453125 -3.109375 C 0.921875 -3.109375 0.96875 -3.109375 0.96875 -2.8125 L 0.96875 -0.984375 C 0.96875 -0.09375 1.71875 0.0625 2.5 0.0625 C 2.765625 0.0625 3.296875 0.0625 3.734375 -0.5 L 3.734375 0.0625 L 5.171875 0 L 5.171875 -0.421875 C 4.703125 -0.421875 4.65625 -0.421875 4.65625 -0.71875 L 4.65625 -3.59375 Z M 3.15625 -3.53125 "/>
</g>
<g id="glyph-7-5">
<path d="M 4.65625 -2.421875 C 4.65625 -3.390625 4.046875 -3.59375 3.34375 -3.59375 C 2.375 -3.59375 1.9375 -2.953125 1.84375 -2.78125 L 1.84375 -3.59375 L 0.453125 -3.53125 L 0.453125 -3.109375 C 0.921875 -3.109375 0.96875 -3.109375 0.96875 -2.8125 L 0.96875 -0.421875 L 0.453125 -0.421875 L 0.453125 0 C 0.875 -0.03125 1.15625 -0.03125 1.453125 -0.03125 C 1.765625 -0.03125 2.046875 -0.03125 2.46875 0 L 2.46875 -0.421875 L 1.9375 -0.421875 L 1.9375 -2.015625 C 1.9375 -2.90625 2.703125 -3.265625 3.21875 -3.265625 C 3.5 -3.265625 3.6875 -3.125 3.6875 -2.5 L 3.6875 -0.421875 L 3.15625 -0.421875 L 3.15625 0 C 3.578125 -0.03125 3.859375 -0.03125 4.171875 -0.03125 C 4.484375 -0.03125 4.75 -0.03125 5.171875 0 L 5.171875 -0.421875 L 4.65625 -0.421875 Z M 4.65625 -2.421875 "/>
</g>
<g id="glyph-7-6">
<path d="M 4.0625 -0.921875 C 4.0625 -1.0625 3.921875 -1.0625 3.828125 -1.0625 C 3.6875 -1.0625 3.65625 -1.0625 3.609375 -0.921875 C 3.375 -0.390625 2.84375 -0.3125 2.59375 -0.3125 C 1.40625 -0.3125 1.40625 -1.453125 1.40625 -1.796875 C 1.40625 -2.28125 1.421875 -3.25 2.5 -3.25 C 2.546875 -3.25 3 -3.234375 3 -3.203125 C 3 -3.203125 2.984375 -3.171875 2.96875 -3.15625 C 2.90625 -3.0625 2.875 -2.9375 2.875 -2.828125 C 2.875 -2.515625 3.109375 -2.296875 3.40625 -2.296875 C 3.703125 -2.296875 3.9375 -2.5 3.9375 -2.84375 C 3.9375 -3.625 2.78125 -3.625 2.46875 -3.625 C 0.9375 -3.625 0.328125 -2.671875 0.328125 -1.765625 C 0.328125 -0.78125 1.046875 0.0625 2.4375 0.0625 C 2.78125 0.0625 3.1875 -0.015625 3.515625 -0.203125 C 3.9375 -0.46875 4.0625 -0.875 4.0625 -0.921875 Z M 4.0625 -0.921875 "/>
</g>
</g>
<clipPath id="clip-0">
<path clip-rule="nonzero" d="M 41 0 L 43 0 L 43 175.144531 L 41 175.144531 Z M 41 0 "/>
</clipPath>
<clipPath id="clip-1">
<path clip-rule="nonzero" d="M 41 27 L 132.675781 27 L 132.675781 140 L 41 140 Z M 41 27 "/>
</clipPath>
<clipPath id="clip-2">
<path clip-rule="nonzero" d="M 41 26 L 132.675781 26 L 132.675781 140 L 41 140 Z M 41 26 "/>
</clipPath>
<clipPath id="clip-3">
<path clip-rule="nonzero" d="M 41 26 L 132.675781 26 L 132.675781 141 L 41 141 Z M 41 26 "/>
</clipPath>
<clipPath id="clip-4">
<path clip-rule="nonzero" d="M 41.769531 26.488281 L 132.476562 26.488281 L 132.476562 68 L 41.769531 68 Z M 41.769531 26.488281 "/>
</clipPath>
<clipPath id="clip-5">
<path clip-rule="nonzero" d="M 41.769531 40 L 132.476562 40 L 132.476562 103 L 41.769531 103 Z M 41.769531 40 "/>
</clipPath>
<clipPath id="clip-6">
<path clip-rule="nonzero" d="M 41.769531 41 L 132.476562 41 L 132.476562 125 L 41.769531 125 Z M 41.769531 41 "/>
</clipPath>
<clipPath id="clip-7">
<path clip-rule="nonzero" d="M 106 28 L 132.675781 28 L 132.675781 67 L 106 67 Z M 106 28 "/>
</clipPath>
<clipPath id="clip-8">
<path clip-rule="nonzero" d="M 98 30 L 132.675781 30 L 132.675781 69 L 98 69 Z M 98 30 "/>
</clipPath>
<clipPath id="clip-9">
<path clip-rule="nonzero" d="M 106 38 L 132.675781 38 L 132.675781 77 L 106 77 Z M 106 38 "/>
</clipPath>
<clipPath id="clip-10">
<path clip-rule="nonzero" d="M 98 48 L 132.675781 48 L 132.675781 87 L 98 87 Z M 98 48 "/>
</clipPath>
<clipPath id="clip-11">
<path clip-rule="nonzero" d="M 106 39 L 132.675781 39 L 132.675781 78 L 106 78 Z M 106 39 "/>
</clipPath>
<clipPath id="clip-12">
<path clip-rule="nonzero" d="M 98 49 L 132.675781 49 L 132.675781 88 L 98 88 Z M 98 49 "/>
</clipPath>
</defs>
<g clip-path="url(#clip-0)">
<path fill="none" stroke-width="0.79701" stroke-linecap="butt" stroke-linejoin="miter" stroke="rgb(100%, 100%, 100%)" stroke-opacity="1" stroke-miterlimit="10" d="M -0.00046875 -34.871094 L -0.00046875 139.480469 " transform="matrix(1, 0, 0, -1, 41.77, 139.875)"/>
</g>
<path fill="none" stroke-width="0.19925" stroke-linecap="butt" stroke-linejoin="miter" stroke="rgb(50%, 50%, 50%)" stroke-opacity="1" stroke-miterlimit="10" d="M -95.878406 -136.067906 L -95.878406 -133.231969 M -93.296375 -136.067906 L -93.296375 -133.231969 M -91.019031 -136.067906 L -91.019031 -133.231969 M -88.983875 -136.067906 L -88.983875 -133.231969 M -75.589344 -136.067906 L -75.589344 -133.231969 M -67.757313 -136.067906 L -67.757313 -133.231969 M -62.198719 -136.067906 L -62.198719 -133.231969 M -57.886219 -136.067906 L -57.886219 -133.231969 M -54.362781 -136.067906 L -54.362781 -133.231969 M -51.382313 -136.067906 L -51.382313 -133.231969 M -48.804188 -136.067906 L -48.804188 -133.231969 M -46.526844 -136.067906 L -46.526844 -133.231969 M -44.491688 -136.067906 L -44.491688 -133.231969 M -31.097156 -136.067906 L -31.097156 -133.231969 M -23.265125 -136.067906 L -23.265125 -133.231969 M -17.706531 -136.067906 L -17.706531 -133.231969 M -13.394031 -136.067906 L -13.394031 -133.231969 M -9.870594 -136.067906 L -9.870594 -133.231969 M -6.890125 -136.067906 L -6.890125 -133.231969 M -95.878406 -22.677281 L -95.878406 -25.513219 M -93.296375 -22.677281 L -93.296375 -25.513219 M -91.019031 -22.677281 L -91.019031 -25.513219 M -88.983875 -22.677281 L -88.983875 -25.513219 M -75.589344 -22.677281 L -75.589344 -25.513219 M -67.757313 -22.677281 L -67.757313 -25.513219 M -62.198719 -22.677281 L -62.198719 -25.513219 M -57.886219 -22.677281 L -57.886219 -25.513219 M -54.362781 -22.677281 L -54.362781 -25.513219 M -51.382313 -22.677281 L -51.382313 -25.513219 M -48.804188 -22.677281 L -48.804188 -25.513219 M -46.526844 -22.677281 L -46.526844 -25.513219 M -44.491688 -22.677281 L -44.491688 -25.513219 M -31.097156 -22.677281 L -31.097156 -25.513219 M -23.265125 -22.677281 L -23.265125 -25.513219 M -17.706531 -22.677281 L -17.706531 -25.513219 M -13.394031 -22.677281 L -13.394031 -25.513219 M -9.870594 -22.677281 L -9.870594 -25.513219 M -6.890125 -22.677281 L -6.890125 -25.513219 " transform="matrix(1, 0, 0, -1, 138.312, 3.811)"/>
<path fill="none" stroke-width="0.19925" stroke-linecap="butt" stroke-linejoin="miter" stroke="rgb(50%, 50%, 50%)" stroke-opacity="1" stroke-miterlimit="10" d="M -88.983875 -136.067906 L -88.983875 -131.814 M -44.491688 -136.067906 L -44.491688 -131.814 M -88.983875 -22.677281 L -88.983875 -26.927281 M -44.491688 -22.677281 L -44.491688 -26.927281 " transform="matrix(1, 0, 0, -1, 138.312, 3.811)"/>
<g clip-path="url(#clip-1)">
<path fill="none" stroke-width="0.19925" stroke-linecap="butt" stroke-linejoin="miter" stroke="rgb(50%, 50%, 50%)" stroke-opacity="1" stroke-miterlimit="10" d="M -96.542469 -136.067906 L -93.714344 -136.067906 M -96.542469 -129.239781 L -93.714344 -129.239781 M -96.542469 -125.247594 L -93.714344 -125.247594 M -96.542469 -122.411656 L -93.714344 -122.411656 M -96.542469 -120.216344 L -93.714344 -120.216344 M -96.542469 -118.419469 L -93.714344 -118.419469 M -96.542469 -116.899938 L -93.714344 -116.899938 M -96.542469 -115.587438 L -93.714344 -115.587438 M -96.542469 -114.427281 L -93.714344 -114.427281 M -96.542469 -113.388219 L -93.714344 -113.388219 M -96.542469 -106.560094 L -93.714344 -106.560094 M -96.542469 -102.567906 L -93.714344 -102.567906 M -96.542469 -99.735875 L -93.714344 -99.735875 M -96.542469 -97.536656 L -93.714344 -97.536656 M -96.542469 -95.739781 L -93.714344 -95.739781 M -96.542469 -94.224156 L -93.714344 -94.224156 M -96.542469 -92.90775 L -93.714344 -92.90775 M -96.542469 -91.747594 L -93.714344 -91.747594 M -96.542469 -90.712438 L -93.714344 -90.712438 M -96.542469 -83.884313 L -93.714344 -83.884313 M -96.542469 -79.892125 L -93.714344 -79.892125 M -96.542469 -77.056188 L -93.714344 -77.056188 M -96.542469 -74.860875 L -93.714344 -74.860875 M -96.542469 -73.064 L -93.714344 -73.064 M -96.542469 -71.544469 L -93.714344 -71.544469 M -96.542469 -70.231969 L -93.714344 -70.231969 M -96.542469 -69.071813 L -93.714344 -69.071813 M -96.542469 -68.03275 L -93.714344 -68.03275 M -96.542469 -61.204625 L -93.714344 -61.204625 M -96.542469 -57.212438 L -93.714344 -57.212438 M -96.542469 -54.380406 L -93.714344 -54.380406 M -96.542469 -52.181188 L -93.714344 -52.181188 M -96.542469 -50.384313 L -93.714344 -50.384313 M -96.542469 -48.868688 L -93.714344 -48.868688 M -96.542469 -47.552281 L -93.714344 -47.552281 M -96.542469 -46.392125 L -93.714344 -46.392125 M -96.542469 -45.356969 L -93.714344 -45.356969 M -96.542469 -38.528844 L -93.714344 -38.528844 M -96.542469 -34.536656 L -93.714344 -34.536656 M -96.542469 -31.700719 L -93.714344 -31.700719 M -96.542469 -29.505406 L -93.714344 -29.505406 M -96.542469 -27.708531 L -93.714344 -27.708531 M -96.542469 -26.189 L -93.714344 -26.189 M -96.542469 -24.8765 L -93.714344 -24.8765 M -96.542469 -23.716344 L -93.714344 -23.716344 M -5.835438 -136.067906 L -8.667469 -136.067906 M -5.835438 -129.239781 L -8.667469 -129.239781 M -5.835438 -125.247594 L -8.667469 -125.247594 M -5.835438 -122.411656 L -8.667469 -122.411656 M -5.835438 -120.216344 L -8.667469 -120.216344 M -5.835438 -118.419469 L -8.667469 -118.419469 M -5.835438 -116.899938 L -8.667469 -116.899938 M -5.835438 -115.587438 L -8.667469 -115.587438 M -5.835438 -114.427281 L -8.667469 -114.427281 M -5.835438 -113.388219 L -8.667469 -113.388219 M -5.835438 -106.560094 L -8.667469 -106.560094 M -5.835438 -102.567906 L -8.667469 -102.567906 M -5.835438 -99.735875 L -8.667469 -99.735875 M -5.835438 -97.536656 L -8.667469 -97.536656 M -5.835438 -95.739781 L -8.667469 -95.739781 M -5.835438 -94.224156 L -8.667469 -94.224156 M -5.835438 -92.90775 L -8.667469 -92.90775 M -5.835438 -91.747594 L -8.667469 -91.747594 M -5.835438 -90.712438 L -8.667469 -90.712438 M -5.835438 -83.884313 L -8.667469 -83.884313 M -5.835438 -79.892125 L -8.667469 -79.892125 M -5.835438 -77.056188 L -8.667469 -77.056188 M -5.835438 -74.860875 L -8.667469 -74.860875 M -5.835438 -73.064 L -8.667469 -73.064 M -5.835438 -71.544469 L -8.667469 -71.544469 M -5.835438 -70.231969 L -8.667469 -70.231969 M -5.835438 -69.071813 L -8.667469 -69.071813 M -5.835438 -68.03275 L -8.667469 -68.03275 M -5.835438 -61.204625 L -8.667469 -61.204625 M -5.835438 -57.212438 L -8.667469 -57.212438 M -5.835438 -54.380406 L -8.667469 -54.380406 M -5.835438 -52.181188 L -8.667469 -52.181188 M -5.835438 -50.384313 L -8.667469 -50.384313 M -5.835438 -48.868688 L -8.667469 -48.868688 M -5.835438 -47.552281 L -8.667469 -47.552281 M -5.835438 -46.392125 L -8.667469 -46.392125 M -5.835438 -45.356969 L -8.667469 -45.356969 M -5.835438 -38.528844 L -8.667469 -38.528844 M -5.835438 -34.536656 L -8.667469 -34.536656 M -5.835438 -31.700719 L -8.667469 -31.700719 M -5.835438 -29.505406 L -8.667469 -29.505406 M -5.835438 -27.708531 L -8.667469 -27.708531 M -5.835438 -26.189 L -8.667469 -26.189 M -5.835438 -24.8765 L -8.667469 -24.8765 M -5.835438 -23.716344 L -8.667469 -23.716344 " transform="matrix(1, 0, 0, -1, 138.312, 3.811)"/>
</g>
<g clip-path="url(#clip-2)">
<path fill="none" stroke-width="0.19925" stroke-linecap="butt" stroke-linejoin="miter" stroke="rgb(50%, 50%, 50%)" stroke-opacity="1" stroke-miterlimit="10" d="M -96.542469 -136.067906 L -92.296375 -136.067906 M -96.542469 -113.388219 L -92.296375 -113.388219 M -96.542469 -90.712438 L -92.296375 -90.712438 M -96.542469 -68.03275 L -92.296375 -68.03275 M -96.542469 -45.356969 L -92.296375 -45.356969 M -96.542469 -22.677281 L -92.296375 -22.677281 M -5.835438 -136.067906 L -10.081531 -136.067906 M -5.835438 -113.388219 L -10.081531 -113.388219 M -5.835438 -90.712438 L -10.081531 -90.712438 M -5.835438 -68.03275 L -10.081531 -68.03275 M -5.835438 -45.356969 L -10.081531 -45.356969 M -5.835438 -22.677281 L -10.081531 -22.677281 " transform="matrix(1, 0, 0, -1, 138.312, 3.811)"/>
</g>
<g clip-path="url(#clip-3)">
<path fill="none" stroke-width="0.3985" stroke-linecap="butt" stroke-linejoin="miter" stroke="rgb(0%, 0%, 0%)" stroke-opacity="1" stroke-miterlimit="10" d="M -96.542469 -136.067906 L -96.542469 -22.677281 L -5.835438 -22.677281 L -5.835438 -136.067906 Z M -96.542469 -136.067906 " transform="matrix(1, 0, 0, -1, 138.312, 3.811)"/>
</g>
<g fill="rgb(0%, 0%, 0%)" fill-opacity="1">
<use xlink:href="#glyph-0-0" x="39.768" y="151.056"/>
<use xlink:href="#glyph-0-1" x="44.375833" y="151.056"/>
</g>
<g fill="rgb(0%, 0%, 0%)" fill-opacity="1">
<use xlink:href="#glyph-1-0" x="48.983" y="147.247"/>
</g>
<g fill="rgb(0%, 0%, 0%)" fill-opacity="1">
<use xlink:href="#glyph-2-0" x="54.739" y="147.247"/>
</g>
<g fill="rgb(0%, 0%, 0%)" fill-opacity="1">
<use xlink:href="#glyph-0-0" x="84.259" y="151.056"/>
<use xlink:href="#glyph-0-1" x="88.866833" y="151.056"/>
</g>
<g fill="rgb(0%, 0%, 0%)" fill-opacity="1">
<use xlink:href="#glyph-1-0" x="93.475" y="147.247"/>
</g>
<g fill="rgb(0%, 0%, 0%)" fill-opacity="1">
<use xlink:href="#glyph-2-1" x="99.231" y="147.247"/>
</g>
<g fill="rgb(0%, 0%, 0%)" fill-opacity="1">
<use xlink:href="#glyph-0-0" x="19.127" y="143.706"/>
<use xlink:href="#glyph-0-1" x="23.734833" y="143.706"/>
</g>
<g fill="rgb(0%, 0%, 0%)" fill-opacity="1">
<use xlink:href="#glyph-1-0" x="28.343" y="139.897"/>
</g>
<g fill="rgb(0%, 0%, 0%)" fill-opacity="1">
<use xlink:href="#glyph-2-2" x="34.099" y="139.897"/>
</g>
<g fill="rgb(0%, 0%, 0%)" fill-opacity="1">
<use xlink:href="#glyph-0-0" x="19.127" y="121.028"/>
<use xlink:href="#glyph-0-1" x="23.734833" y="121.028"/>
</g>
<g fill="rgb(0%, 0%, 0%)" fill-opacity="1">
<use xlink:href="#glyph-1-0" x="28.343" y="117.219"/>
</g>
<g fill="rgb(0%, 0%, 0%)" fill-opacity="1">
<use xlink:href="#glyph-2-3" x="34.099" y="117.219"/>
</g>
<g fill="rgb(0%, 0%, 0%)" fill-opacity="1">
<use xlink:href="#glyph-0-0" x="19.127" y="98.351"/>
<use xlink:href="#glyph-0-1" x="23.734833" y="98.351"/>
</g>
<g fill="rgb(0%, 0%, 0%)" fill-opacity="1">
<use xlink:href="#glyph-1-0" x="28.343" y="94.542"/>
</g>
<g fill="rgb(0%, 0%, 0%)" fill-opacity="1">
<use xlink:href="#glyph-2-4" x="34.099" y="94.542"/>
</g>
<g fill="rgb(0%, 0%, 0%)" fill-opacity="1">
<use xlink:href="#glyph-0-0" x="19.127" y="75.674"/>
<use xlink:href="#glyph-0-1" x="23.734833" y="75.674"/>
</g>
<g fill="rgb(0%, 0%, 0%)" fill-opacity="1">
<use xlink:href="#glyph-1-0" x="28.343" y="71.865"/>
</g>
<g fill="rgb(0%, 0%, 0%)" fill-opacity="1">
<use xlink:href="#glyph-2-5" x="34.099" y="71.865"/>
</g>
<g fill="rgb(0%, 0%, 0%)" fill-opacity="1">
<use xlink:href="#glyph-0-0" x="19.127" y="52.996"/>
<use xlink:href="#glyph-0-1" x="23.734833" y="52.996"/>
</g>
<g fill="rgb(0%, 0%, 0%)" fill-opacity="1">
<use xlink:href="#glyph-1-0" x="28.342" y="49.187"/>
</g>
<g fill="rgb(0%, 0%, 0%)" fill-opacity="1">
<use xlink:href="#glyph-2-0" x="34.099" y="49.187"/>
</g>
<g fill="rgb(0%, 0%, 0%)" fill-opacity="1">
<use xlink:href="#glyph-0-0" x="19.127" y="30.319"/>
<use xlink:href="#glyph-0-1" x="23.734833" y="30.319"/>
</g>
<g fill="rgb(0%, 0%, 0%)" fill-opacity="1">
<use xlink:href="#glyph-1-0" x="28.342" y="26.51"/>
</g>
<g fill="rgb(0%, 0%, 0%)" fill-opacity="1">
<use xlink:href="#glyph-2-1" x="34.099" y="26.51"/>
</g>
<g clip-path="url(#clip-4)">
<path fill="none" stroke-width="1.19553" stroke-linecap="butt" stroke-linejoin="miter" stroke="rgb(41.96167%, 68.232727%, 83.921814%)" stroke-opacity="1" stroke-miterlimit="10" d="M -13.394031 -43.571813 L -20.952625 -45.65775 L -28.511219 -46.564 L -36.073719 -45.942906 L -43.632313 -45.798375 L -51.190906 -44.884313 L -58.7495 -44.118688 L -66.308094 -42.689 L -73.866688 -41.958531 L -81.425281 -41.169469 L -88.983875 -39.759313 " transform="matrix(1, 0, 0, -1, 138.312, 3.811)"/>
</g>
<g clip-path="url(#clip-5)">
<path fill="none" stroke-width="1.19553" stroke-linecap="butt" stroke-linejoin="miter" stroke="rgb(19.216919%, 50.979614%, 74.116516%)" stroke-opacity="1" stroke-miterlimit="10" d="M -13.394031 -53.989781 L -20.952625 -63.923375 L -28.511219 -73.923375 L -36.073719 -80.142125 L -43.632313 -81.899938 L -51.190906 -80.122594 L -58.7495 -78.489781 L -66.308094 -75.892125 L -73.866688 -74.821813 L -81.425281 -70.981969 L -88.983875 -69.103063 " transform="matrix(1, 0, 0, -1, 138.312, 3.811)"/>
</g>
<g clip-path="url(#clip-6)">
<path fill="none" stroke-width="1.19553" stroke-linecap="butt" stroke-linejoin="miter" stroke="rgb(3.135681%, 31.765747%, 61.175537%)" stroke-opacity="1" stroke-miterlimit="10" d="M -13.394031 -54.310094 L -20.952625 -64.923375 L -28.511219 -76.872594 L -36.073719 -88.774938 L -43.632313 -98.911656 L -51.190906 -103.15775 L -58.7495 -104.149938 L -66.308094 -98.169469 L -73.866688 -98.860875 L -81.425281 -95.704625 L -88.983875 -93.384313 " transform="matrix(1, 0, 0, -1, 138.312, 3.811)"/>
</g>
<path fill-rule="nonzero" fill="rgb(41.96167%, 68.232727%, 83.921814%)" fill-opacity="1" d="M 126.910156 47.382812 C 126.910156 46.28125 126.019531 45.390625 124.917969 45.390625 C 123.816406 45.390625 122.925781 46.28125 122.925781 47.382812 C 122.925781 48.484375 123.816406 49.375 124.917969 49.375 C 126.019531 49.375 126.910156 48.484375 126.910156 47.382812 Z M 126.910156 47.382812 "/>
<g clip-path="url(#clip-7)">
<path fill="none" stroke-width="1.19553" stroke-linecap="butt" stroke-linejoin="miter" stroke="rgb(41.96167%, 68.232727%, 83.921814%)" stroke-opacity="1" stroke-miterlimit="10" d="M -11.401844 -43.571813 C -11.401844 -42.47025 -12.292469 -41.579625 -13.394031 -41.579625 C -14.495594 -41.579625 -15.386219 -42.47025 -15.386219 -43.571813 C -15.386219 -44.673375 -14.495594 -45.564 -13.394031 -45.564 C -12.292469 -45.564 -11.401844 -44.673375 -11.401844 -43.571813 Z M -11.401844 -43.571813 " transform="matrix(1, 0, 0, -1, 138.312, 3.811)"/>
</g>
<path fill-rule="nonzero" fill="rgb(41.96167%, 68.232727%, 83.921814%)" fill-opacity="1" d="M 119.351562 49.46875 C 119.351562 48.367188 118.460938 47.476562 117.359375 47.476562 C 116.257812 47.476562 115.367188 48.367188 115.367188 49.46875 C 115.367188 50.570312 116.257812 51.460938 117.359375 51.460938 C 118.460938 51.460938 119.351562 50.570312 119.351562 49.46875 Z M 119.351562 49.46875 "/>
<g clip-path="url(#clip-8)">
<path fill="none" stroke-width="1.19553" stroke-linecap="butt" stroke-linejoin="miter" stroke="rgb(41.96167%, 68.232727%, 83.921814%)" stroke-opacity="1" stroke-miterlimit="10" d="M -18.960438 -45.65775 C -18.960438 -44.556188 -19.851063 -43.665563 -20.952625 -43.665563 C -22.054188 -43.665563 -22.944813 -44.556188 -22.944813 -45.65775 C -22.944813 -46.759313 -22.054188 -47.649938 -20.952625 -47.649938 C -19.851063 -47.649938 -18.960438 -46.759313 -18.960438 -45.65775 Z M -18.960438 -45.65775 " transform="matrix(1, 0, 0, -1, 138.312, 3.811)"/>
</g>
<path fill-rule="nonzero" fill="rgb(41.96167%, 68.232727%, 83.921814%)" fill-opacity="1" stroke-width="1.19553" stroke-linecap="butt" stroke-linejoin="miter" stroke="rgb(41.96167%, 68.232727%, 83.921814%)" stroke-opacity="1" stroke-miterlimit="10" d="M -26.519031 -46.564 C -26.519031 -45.466344 -27.413563 -44.571813 -28.511219 -44.571813 C -29.612781 -44.571813 -30.503406 -45.466344 -30.503406 -46.564 C -30.503406 -47.665563 -29.612781 -48.556188 -28.511219 -48.556188 C -27.413563 -48.556188 -26.519031 -47.665563 -26.519031 -46.564 Z M -26.519031 -46.564 " transform="matrix(1, 0, 0, -1, 138.312, 3.811)"/>
<path fill-rule="nonzero" fill="rgb(41.96167%, 68.232727%, 83.921814%)" fill-opacity="1" stroke-width="1.19553" stroke-linecap="butt" stroke-linejoin="miter" stroke="rgb(41.96167%, 68.232727%, 83.921814%)" stroke-opacity="1" stroke-miterlimit="10" d="M -34.077625 -45.942906 C -34.077625 -44.841344 -34.972156 -43.946813 -36.073719 -43.946813 C -37.171375 -43.946813 -38.065906 -44.841344 -38.065906 -45.942906 C -38.065906 -47.040563 -37.171375 -47.935094 -36.073719 -47.935094 C -34.972156 -47.935094 -34.077625 -47.040563 -34.077625 -45.942906 Z M -34.077625 -45.942906 " transform="matrix(1, 0, 0, -1, 138.312, 3.811)"/>
<path fill-rule="nonzero" fill="rgb(41.96167%, 68.232727%, 83.921814%)" fill-opacity="1" stroke-width="1.19553" stroke-linecap="butt" stroke-linejoin="miter" stroke="rgb(41.96167%, 68.232727%, 83.921814%)" stroke-opacity="1" stroke-miterlimit="10" d="M -41.640125 -45.798375 C -41.640125 -44.696813 -42.53075 -43.806188 -43.632313 -43.806188 C -44.729969 -43.806188 -45.6245 -44.696813 -45.6245 -45.798375 C -45.6245 -46.899938 -44.729969 -47.790563 -43.632313 -47.790563 C -42.53075 -47.790563 -41.640125 -46.899938 -41.640125 -45.798375 Z M -41.640125 -45.798375 " transform="matrix(1, 0, 0, -1, 138.312, 3.811)"/>
<path fill-rule="nonzero" fill="rgb(41.96167%, 68.232727%, 83.921814%)" fill-opacity="1" stroke-width="1.19553" stroke-linecap="butt" stroke-linejoin="miter" stroke="rgb(41.96167%, 68.232727%, 83.921814%)" stroke-opacity="1" stroke-miterlimit="10" d="M -49.198719 -44.884313 C -49.198719 -43.78275 -50.089344 -42.892125 -51.190906 -42.892125 C -52.292469 -42.892125 -53.183094 -43.78275 -53.183094 -44.884313 C -53.183094 -45.985875 -52.292469 -46.8765 -51.190906 -46.8765 C -50.089344 -46.8765 -49.198719 -45.985875 -49.198719 -44.884313 Z M -49.198719 -44.884313 " transform="matrix(1, 0, 0, -1, 138.312, 3.811)"/>
<path fill-rule="nonzero" fill="rgb(41.96167%, 68.232727%, 83.921814%)" fill-opacity="1" stroke-width="1.19553" stroke-linecap="butt" stroke-linejoin="miter" stroke="rgb(41.96167%, 68.232727%, 83.921814%)" stroke-opacity="1" stroke-miterlimit="10" d="M -56.757313 -44.118688 C -56.757313 -43.017125 -57.647938 -42.1265 -58.7495 -42.1265 C -59.847156 -42.1265 -60.741688 -43.017125 -60.741688 -44.118688 C -60.741688 -45.22025 -59.847156 -46.110875 -58.7495 -46.110875 C -57.647938 -46.110875 -56.757313 -45.22025 -56.757313 -44.118688 Z M -56.757313 -44.118688 " transform="matrix(1, 0, 0, -1, 138.312, 3.811)"/>
<path fill-rule="nonzero" fill="rgb(41.96167%, 68.232727%, 83.921814%)" fill-opacity="1" stroke-width="1.19553" stroke-linecap="butt" stroke-linejoin="miter" stroke="rgb(41.96167%, 68.232727%, 83.921814%)" stroke-opacity="1" stroke-miterlimit="10" d="M -64.315906 -42.689 C -64.315906 -41.591344 -65.206531 -40.696813 -66.308094 -40.696813 C -67.409656 -40.696813 -68.300281 -41.591344 -68.300281 -42.689 C -68.300281 -43.790563 -67.409656 -44.681188 -66.308094 -44.681188 C -65.206531 -44.681188 -64.315906 -43.790563 -64.315906 -42.689 Z M -64.315906 -42.689 " transform="matrix(1, 0, 0, -1, 138.312, 3.811)"/>
<path fill-rule="nonzero" fill="rgb(41.96167%, 68.232727%, 83.921814%)" fill-opacity="1" stroke-width="1.19553" stroke-linecap="butt" stroke-linejoin="miter" stroke="rgb(41.96167%, 68.232727%, 83.921814%)" stroke-opacity="1" stroke-miterlimit="10" d="M -71.8745 -41.958531 C -71.8745 -40.856969 -72.765125 -39.966344 -73.866688 -39.966344 C -74.96825 -39.966344 -75.858875 -40.856969 -75.858875 -41.958531 C -75.858875 -43.060094 -74.96825 -43.950719 -73.866688 -43.950719 C -72.765125 -43.950719 -71.8745 -43.060094 -71.8745 -41.958531 Z M -71.8745 -41.958531 " transform="matrix(1, 0, 0, -1, 138.312, 3.811)"/>
<path fill-rule="nonzero" fill="rgb(41.96167%, 68.232727%, 83.921814%)" fill-opacity="1" stroke-width="1.19553" stroke-linecap="butt" stroke-linejoin="miter" stroke="rgb(41.96167%, 68.232727%, 83.921814%)" stroke-opacity="1" stroke-miterlimit="10" d="M -79.433094 -41.169469 C -79.433094 -40.067906 -80.323719 -39.177281 -81.425281 -39.177281 C -82.526844 -39.177281 -83.417469 -40.067906 -83.417469 -41.169469 C -83.417469 -42.271031 -82.526844 -43.161656 -81.425281 -43.161656 C -80.323719 -43.161656 -79.433094 -42.271031 -79.433094 -41.169469 Z M -79.433094 -41.169469 " transform="matrix(1, 0, 0, -1, 138.312, 3.811)"/>
<path fill-rule="nonzero" fill="rgb(41.96167%, 68.232727%, 83.921814%)" fill-opacity="1" stroke-width="1.19553" stroke-linecap="butt" stroke-linejoin="miter" stroke="rgb(41.96167%, 68.232727%, 83.921814%)" stroke-opacity="1" stroke-miterlimit="10" d="M -86.991688 -39.759313 C -86.991688 -38.65775 -87.882313 -37.767125 -88.983875 -37.767125 C -90.085438 -37.767125 -90.976063 -38.65775 -90.976063 -39.759313 C -90.976063 -40.860875 -90.085438 -41.7515 -88.983875 -41.7515 C -87.882313 -41.7515 -86.991688 -40.860875 -86.991688 -39.759313 Z M -86.991688 -39.759313 " transform="matrix(1, 0, 0, -1, 138.312, 3.811)"/>
<path fill-rule="nonzero" fill="rgb(19.216919%, 50.979614%, 74.116516%)" fill-opacity="1" d="M 126.910156 57.800781 C 126.910156 56.699219 126.019531 55.808594 124.917969 55.808594 C 123.816406 55.808594 122.925781 56.699219 122.925781 57.800781 C 122.925781 58.898438 123.816406 59.792969 124.917969 59.792969 C 126.019531 59.792969 126.910156 58.898438 126.910156 57.800781 Z M 126.910156 57.800781 "/>
<g clip-path="url(#clip-9)">
<path fill="none" stroke-width="1.19553" stroke-linecap="butt" stroke-linejoin="miter" stroke="rgb(19.216919%, 50.979614%, 74.116516%)" stroke-opacity="1" stroke-miterlimit="10" d="M -11.401844 -53.989781 C -11.401844 -52.888219 -12.292469 -51.997594 -13.394031 -51.997594 C -14.495594 -51.997594 -15.386219 -52.888219 -15.386219 -53.989781 C -15.386219 -55.087438 -14.495594 -55.981969 -13.394031 -55.981969 C -12.292469 -55.981969 -11.401844 -55.087438 -11.401844 -53.989781 Z M -11.401844 -53.989781 " transform="matrix(1, 0, 0, -1, 138.312, 3.811)"/>
</g>
<path fill-rule="nonzero" fill="rgb(19.216919%, 50.979614%, 74.116516%)" fill-opacity="1" d="M 119.351562 67.734375 C 119.351562 66.632812 118.460938 65.742188 117.359375 65.742188 C 116.257812 65.742188 115.367188 66.632812 115.367188 67.734375 C 115.367188 68.835938 116.257812 69.726562 117.359375 69.726562 C 118.460938 69.726562 119.351562 68.835938 119.351562 67.734375 Z M 119.351562 67.734375 "/>
<g clip-path="url(#clip-10)">
<path fill="none" stroke-width="1.19553" stroke-linecap="butt" stroke-linejoin="miter" stroke="rgb(19.216919%, 50.979614%, 74.116516%)" stroke-opacity="1" stroke-miterlimit="10" d="M -18.960438 -63.923375 C -18.960438 -62.821813 -19.851063 -61.931188 -20.952625 -61.931188 C -22.054188 -61.931188 -22.944813 -62.821813 -22.944813 -63.923375 C -22.944813 -65.024938 -22.054188 -65.915563 -20.952625 -65.915563 C -19.851063 -65.915563 -18.960438 -65.024938 -18.960438 -63.923375 Z M -18.960438 -63.923375 " transform="matrix(1, 0, 0, -1, 138.312, 3.811)"/>
</g>
<path fill-rule="nonzero" fill="rgb(19.216919%, 50.979614%, 74.116516%)" fill-opacity="1" stroke-width="1.19553" stroke-linecap="butt" stroke-linejoin="miter" stroke="rgb(19.216919%, 50.979614%, 74.116516%)" stroke-opacity="1" stroke-miterlimit="10" d="M -26.519031 -73.923375 C -26.519031 -72.821813 -27.413563 -71.931188 -28.511219 -71.931188 C -29.612781 -71.931188 -30.503406 -72.821813 -30.503406 -73.923375 C -30.503406 -75.024938 -29.612781 -75.915563 -28.511219 -75.915563 C -27.413563 -75.915563 -26.519031 -75.024938 -26.519031 -73.923375 Z M -26.519031 -73.923375 " transform="matrix(1, 0, 0, -1, 138.312, 3.811)"/>
<path fill-rule="nonzero" fill="rgb(19.216919%, 50.979614%, 74.116516%)" fill-opacity="1" stroke-width="1.19553" stroke-linecap="butt" stroke-linejoin="miter" stroke="rgb(19.216919%, 50.979614%, 74.116516%)" stroke-opacity="1" stroke-miterlimit="10" d="M -34.077625 -80.142125 C -34.077625 -79.040563 -34.972156 -78.149938 -36.073719 -78.149938 C -37.171375 -78.149938 -38.065906 -79.040563 -38.065906 -80.142125 C -38.065906 -81.243688 -37.171375 -82.134313 -36.073719 -82.134313 C -34.972156 -82.134313 -34.077625 -81.243688 -34.077625 -80.142125 Z M -34.077625 -80.142125 " transform="matrix(1, 0, 0, -1, 138.312, 3.811)"/>
<path fill-rule="nonzero" fill="rgb(19.216919%, 50.979614%, 74.116516%)" fill-opacity="1" stroke-width="1.19553" stroke-linecap="butt" stroke-linejoin="miter" stroke="rgb(19.216919%, 50.979614%, 74.116516%)" stroke-opacity="1" stroke-miterlimit="10" d="M -41.640125 -81.899938 C -41.640125 -80.798375 -42.53075 -79.90775 -43.632313 -79.90775 C -44.729969 -79.90775 -45.6245 -80.798375 -45.6245 -81.899938 C -45.6245 -83.0015 -44.729969 -83.892125 -43.632313 -83.892125 C -42.53075 -83.892125 -41.640125 -83.0015 -41.640125 -81.899938 Z M -41.640125 -81.899938 " transform="matrix(1, 0, 0, -1, 138.312, 3.811)"/>
<path fill-rule="nonzero" fill="rgb(19.216919%, 50.979614%, 74.116516%)" fill-opacity="1" stroke-width="1.19553" stroke-linecap="butt" stroke-linejoin="miter" stroke="rgb(19.216919%, 50.979614%, 74.116516%)" stroke-opacity="1" stroke-miterlimit="10" d="M -49.198719 -80.122594 C -49.198719 -79.021031 -50.089344 -78.130406 -51.190906 -78.130406 C -52.292469 -78.130406 -53.183094 -79.021031 -53.183094 -80.122594 C -53.183094 -81.22025 -52.292469 -82.114781 -51.190906 -82.114781 C -50.089344 -82.114781 -49.198719 -81.22025 -49.198719 -80.122594 Z M -49.198719 -80.122594 " transform="matrix(1, 0, 0, -1, 138.312, 3.811)"/>
<path fill-rule="nonzero" fill="rgb(19.216919%, 50.979614%, 74.116516%)" fill-opacity="1" stroke-width="1.19553" stroke-linecap="butt" stroke-linejoin="miter" stroke="rgb(19.216919%, 50.979614%, 74.116516%)" stroke-opacity="1" stroke-miterlimit="10" d="M -56.757313 -78.489781 C -56.757313 -77.392125 -57.647938 -76.497594 -58.7495 -76.497594 C -59.847156 -76.497594 -60.741688 -77.392125 -60.741688 -78.489781 C -60.741688 -79.591344 -59.847156 -80.481969 -58.7495 -80.481969 C -57.647938 -80.481969 -56.757313 -79.591344 -56.757313 -78.489781 Z M -56.757313 -78.489781 " transform="matrix(1, 0, 0, -1, 138.312, 3.811)"/>
<path fill-rule="nonzero" fill="rgb(19.216919%, 50.979614%, 74.116516%)" fill-opacity="1" stroke-width="1.19553" stroke-linecap="butt" stroke-linejoin="miter" stroke="rgb(19.216919%, 50.979614%, 74.116516%)" stroke-opacity="1" stroke-miterlimit="10" d="M -64.315906 -75.892125 C -64.315906 -74.790563 -65.206531 -73.899938 -66.308094 -73.899938 C -67.409656 -73.899938 -68.300281 -74.790563 -68.300281 -75.892125 C -68.300281 -76.989781 -67.409656 -77.884313 -66.308094 -77.884313 C -65.206531 -77.884313 -64.315906 -76.989781 -64.315906 -75.892125 Z M -64.315906 -75.892125 " transform="matrix(1, 0, 0, -1, 138.312, 3.811)"/>
<path fill-rule="nonzero" fill="rgb(19.216919%, 50.979614%, 74.116516%)" fill-opacity="1" stroke-width="1.19553" stroke-linecap="butt" stroke-linejoin="miter" stroke="rgb(19.216919%, 50.979614%, 74.116516%)" stroke-opacity="1" stroke-miterlimit="10" d="M -71.8745 -74.821813 C -71.8745 -73.724156 -72.765125 -72.829625 -73.866688 -72.829625 C -74.96825 -72.829625 -75.858875 -73.724156 -75.858875 -74.821813 C -75.858875 -75.923375 -74.96825 -76.817906 -73.866688 -76.817906 C -72.765125 -76.817906 -71.8745 -75.923375 -71.8745 -74.821813 Z M -71.8745 -74.821813 " transform="matrix(1, 0, 0, -1, 138.312, 3.811)"/>
<path fill-rule="nonzero" fill="rgb(19.216919%, 50.979614%, 74.116516%)" fill-opacity="1" stroke-width="1.19553" stroke-linecap="butt" stroke-linejoin="miter" stroke="rgb(19.216919%, 50.979614%, 74.116516%)" stroke-opacity="1" stroke-miterlimit="10" d="M -79.433094 -70.981969 C -79.433094 -69.880406 -80.323719 -68.989781 -81.425281 -68.989781 C -82.526844 -68.989781 -83.417469 -69.880406 -83.417469 -70.981969 C -83.417469 -72.083531 -82.526844 -72.974156 -81.425281 -72.974156 C -80.323719 -72.974156 -79.433094 -72.083531 -79.433094 -70.981969 Z M -79.433094 -70.981969 " transform="matrix(1, 0, 0, -1, 138.312, 3.811)"/>
<path fill-rule="nonzero" fill="rgb(19.216919%, 50.979614%, 74.116516%)" fill-opacity="1" stroke-width="1.19553" stroke-linecap="butt" stroke-linejoin="miter" stroke="rgb(19.216919%, 50.979614%, 74.116516%)" stroke-opacity="1" stroke-miterlimit="10" d="M -86.991688 -69.103063 C -86.991688 -68.0015 -87.882313 -67.110875 -88.983875 -67.110875 C -90.085438 -67.110875 -90.976063 -68.0015 -90.976063 -69.103063 C -90.976063 -70.204625 -90.085438 -71.09525 -88.983875 -71.09525 C -87.882313 -71.09525 -86.991688 -70.204625 -86.991688 -69.103063 Z M -86.991688 -69.103063 " transform="matrix(1, 0, 0, -1, 138.312, 3.811)"/>
<path fill-rule="nonzero" fill="rgb(3.135681%, 31.765747%, 61.175537%)" fill-opacity="1" d="M 126.910156 58.121094 C 126.910156 57.019531 126.019531 56.125 124.917969 56.125 C 123.816406 56.125 122.925781 57.019531 122.925781 58.121094 C 122.925781 59.21875 123.816406 60.113281 124.917969 60.113281 C 126.019531 60.113281 126.910156 59.21875 126.910156 58.121094 Z M 126.910156 58.121094 "/>
<g clip-path="url(#clip-11)">
<path fill="none" stroke-width="1.19553" stroke-linecap="butt" stroke-linejoin="miter" stroke="rgb(3.135681%, 31.765747%, 61.175537%)" stroke-opacity="1" stroke-miterlimit="10" d="M -11.401844 -54.310094 C -11.401844 -53.208531 -12.292469 -52.314 -13.394031 -52.314 C -14.495594 -52.314 -15.386219 -53.208531 -15.386219 -54.310094 C -15.386219 -55.40775 -14.495594 -56.302281 -13.394031 -56.302281 C -12.292469 -56.302281 -11.401844 -55.40775 -11.401844 -54.310094 Z M -11.401844 -54.310094 " transform="matrix(1, 0, 0, -1, 138.312, 3.811)"/>
</g>
<path fill-rule="nonzero" fill="rgb(3.135681%, 31.765747%, 61.175537%)" fill-opacity="1" d="M 119.351562 68.734375 C 119.351562 67.632812 118.460938 66.742188 117.359375 66.742188 C 116.257812 66.742188 115.367188 67.632812 115.367188 68.734375 C 115.367188 69.835938 116.257812 70.726562 117.359375 70.726562 C 118.460938 70.726562 119.351562 69.835938 119.351562 68.734375 Z M 119.351562 68.734375 "/>
<g clip-path="url(#clip-12)">
<path fill="none" stroke-width="1.19553" stroke-linecap="butt" stroke-linejoin="miter" stroke="rgb(3.135681%, 31.765747%, 61.175537%)" stroke-opacity="1" stroke-miterlimit="10" d="M -18.960438 -64.923375 C -18.960438 -63.821813 -19.851063 -62.931188 -20.952625 -62.931188 C -22.054188 -62.931188 -22.944813 -63.821813 -22.944813 -64.923375 C -22.944813 -66.024938 -22.054188 -66.915563 -20.952625 -66.915563 C -19.851063 -66.915563 -18.960438 -66.024938 -18.960438 -64.923375 Z M -18.960438 -64.923375 " transform="matrix(1, 0, 0, -1, 138.312, 3.811)"/>
</g>
<path fill-rule="nonzero" fill="rgb(3.135681%, 31.765747%, 61.175537%)" fill-opacity="1" stroke-width="1.19553" stroke-linecap="butt" stroke-linejoin="miter" stroke="rgb(3.135681%, 31.765747%, 61.175537%)" stroke-opacity="1" stroke-miterlimit="10" d="M -26.519031 -76.872594 C -26.519031 -75.771031 -27.413563 -74.880406 -28.511219 -74.880406 C -29.612781 -74.880406 -30.503406 -75.771031 -30.503406 -76.872594 C -30.503406 -77.97025 -29.612781 -78.864781 -28.511219 -78.864781 C -27.413563 -78.864781 -26.519031 -77.97025 -26.519031 -76.872594 Z M -26.519031 -76.872594 " transform="matrix(1, 0, 0, -1, 138.312, 3.811)"/>
<path fill-rule="nonzero" fill="rgb(3.135681%, 31.765747%, 61.175537%)" fill-opacity="1" stroke-width="1.19553" stroke-linecap="butt" stroke-linejoin="miter" stroke="rgb(3.135681%, 31.765747%, 61.175537%)" stroke-opacity="1" stroke-miterlimit="10" d="M -34.077625 -88.774938 C -34.077625 -87.677281 -34.972156 -86.78275 -36.073719 -86.78275 C -37.171375 -86.78275 -38.065906 -87.677281 -38.065906 -88.774938 C -38.065906 -89.8765 -37.171375 -90.767125 -36.073719 -90.767125 C -34.972156 -90.767125 -34.077625 -89.8765 -34.077625 -88.774938 Z M -34.077625 -88.774938 " transform="matrix(1, 0, 0, -1, 138.312, 3.811)"/>
<path fill-rule="nonzero" fill="rgb(3.135681%, 31.765747%, 61.175537%)" fill-opacity="1" stroke-width="1.19553" stroke-linecap="butt" stroke-linejoin="miter" stroke="rgb(3.135681%, 31.765747%, 61.175537%)" stroke-opacity="1" stroke-miterlimit="10" d="M -41.640125 -98.911656 C -41.640125 -97.810094 -42.53075 -96.919469 -43.632313 -96.919469 C -44.729969 -96.919469 -45.6245 -97.810094 -45.6245 -98.911656 C -45.6245 -100.009313 -44.729969 -100.903844 -43.632313 -100.903844 C -42.53075 -100.903844 -41.640125 -100.009313 -41.640125 -98.911656 Z M -41.640125 -98.911656 " transform="matrix(1, 0, 0, -1, 138.312, 3.811)"/>
<path fill-rule="nonzero" fill="rgb(3.135681%, 31.765747%, 61.175537%)" fill-opacity="1" stroke-width="1.19553" stroke-linecap="butt" stroke-linejoin="miter" stroke="rgb(3.135681%, 31.765747%, 61.175537%)" stroke-opacity="1" stroke-miterlimit="10" d="M -49.198719 -103.15775 C -49.198719 -102.056188 -50.089344 -101.165563 -51.190906 -101.165563 C -52.292469 -101.165563 -53.183094 -102.056188 -53.183094 -103.15775 C -53.183094 -104.259313 -52.292469 -105.149938 -51.190906 -105.149938 C -50.089344 -105.149938 -49.198719 -104.259313 -49.198719 -103.15775 Z M -49.198719 -103.15775 " transform="matrix(1, 0, 0, -1, 138.312, 3.811)"/>
<path fill-rule="nonzero" fill="rgb(3.135681%, 31.765747%, 61.175537%)" fill-opacity="1" stroke-width="1.19553" stroke-linecap="butt" stroke-linejoin="miter" stroke="rgb(3.135681%, 31.765747%, 61.175537%)" stroke-opacity="1" stroke-miterlimit="10" d="M -56.757313 -104.149938 C -56.757313 -103.052281 -57.647938 -102.15775 -58.7495 -102.15775 C -59.847156 -102.15775 -60.741688 -103.052281 -60.741688 -104.149938 C -60.741688 -105.2515 -59.847156 -106.142125 -58.7495 -106.142125 C -57.647938 -106.142125 -56.757313 -105.2515 -56.757313 -104.149938 Z M -56.757313 -104.149938 " transform="matrix(1, 0, 0, -1, 138.312, 3.811)"/>
<path fill-rule="nonzero" fill="rgb(3.135681%, 31.765747%, 61.175537%)" fill-opacity="1" stroke-width="1.19553" stroke-linecap="butt" stroke-linejoin="miter" stroke="rgb(3.135681%, 31.765747%, 61.175537%)" stroke-opacity="1" stroke-miterlimit="10" d="M -64.315906 -98.169469 C -64.315906 -97.067906 -65.206531 -96.177281 -66.308094 -96.177281 C -67.409656 -96.177281 -68.300281 -97.067906 -68.300281 -98.169469 C -68.300281 -99.267125 -67.409656 -100.161656 -66.308094 -100.161656 C -65.206531 -100.161656 -64.315906 -99.267125 -64.315906 -98.169469 Z M -64.315906 -98.169469 " transform="matrix(1, 0, 0, -1, 138.312, 3.811)"/>
<path fill-rule="nonzero" fill="rgb(3.135681%, 31.765747%, 61.175537%)" fill-opacity="1" stroke-width="1.19553" stroke-linecap="butt" stroke-linejoin="miter" stroke="rgb(3.135681%, 31.765747%, 61.175537%)" stroke-opacity="1" stroke-miterlimit="10" d="M -71.8745 -98.860875 C -71.8745 -97.759313 -72.765125 -96.868688 -73.866688 -96.868688 C -74.96825 -96.868688 -75.858875 -97.759313 -75.858875 -98.860875 C -75.858875 -99.962438 -74.96825 -100.853063 -73.866688 -100.853063 C -72.765125 -100.853063 -71.8745 -99.962438 -71.8745 -98.860875 Z M -71.8745 -98.860875 " transform="matrix(1, 0, 0, -1, 138.312, 3.811)"/>
<path fill-rule="nonzero" fill="rgb(3.135681%, 31.765747%, 61.175537%)" fill-opacity="1" stroke-width="1.19553" stroke-linecap="butt" stroke-linejoin="miter" stroke="rgb(3.135681%, 31.765747%, 61.175537%)" stroke-opacity="1" stroke-miterlimit="10" d="M -79.433094 -95.704625 C -79.433094 -94.606969 -80.323719 -93.712438 -81.425281 -93.712438 C -82.526844 -93.712438 -83.417469 -94.606969 -83.417469 -95.704625 C -83.417469 -96.806188 -82.526844 -97.696813 -81.425281 -97.696813 C -80.323719 -97.696813 -79.433094 -96.806188 -79.433094 -95.704625 Z M -79.433094 -95.704625 " transform="matrix(1, 0, 0, -1, 138.312, 3.811)"/>
<path fill-rule="nonzero" fill="rgb(3.135681%, 31.765747%, 61.175537%)" fill-opacity="1" stroke-width="1.19553" stroke-linecap="butt" stroke-linejoin="miter" stroke="rgb(3.135681%, 31.765747%, 61.175537%)" stroke-opacity="1" stroke-miterlimit="10" d="M -86.991688 -93.384313 C -86.991688 -92.28275 -87.882313 -91.392125 -88.983875 -91.392125 C -90.085438 -91.392125 -90.976063 -92.28275 -90.976063 -93.384313 C -90.976063 -94.485875 -90.085438 -95.3765 -88.983875 -95.3765 C -87.882313 -95.3765 -86.991688 -94.485875 -86.991688 -93.384313 Z M -86.991688 -93.384313 " transform="matrix(1, 0, 0, -1, 138.312, 3.811)"/>
<g fill="rgb(0%, 0%, 0%)" fill-opacity="1">
<use xlink:href="#glyph-0-2" x="80.742" y="164.024"/>
</g>
<g fill="rgb(0%, 0%, 0%)" fill-opacity="1">
<use xlink:href="#glyph-3-0" x="88.421" y="164.024"/>
</g>
<g fill="rgb(0%, 0%, 0%)" fill-opacity="1">
<use xlink:href="#glyph-4-0" x="10.045" y="105.066"/>
</g>
<g fill="rgb(0%, 0%, 0%)" fill-opacity="1">
<use xlink:href="#glyph-5-0" x="10.045" y="97.386"/>
</g>
<g fill="rgb(0%, 0%, 0%)" fill-opacity="1">
<use xlink:href="#glyph-5-1" x="10.045" y="90.093627"/>
<use xlink:href="#glyph-5-0" x="10.045" y="85.485794"/>
</g>
<g fill="rgb(0%, 0%, 0%)" fill-opacity="1">
<use xlink:href="#glyph-6-0" x="11.041" y="78.705"/>
<use xlink:href="#glyph-6-1" x="11.041" y="75.439437"/>
<use xlink:href="#glyph-6-2" x="11.041" y="71.592852"/>
<use xlink:href="#glyph-6-3" x="11.041" y="67.93994"/>
<use xlink:href="#glyph-6-4" x="11.041" y="64.674377"/>
</g>
<g fill="rgb(0%, 0%, 0%)" fill-opacity="1">
<use xlink:href="#glyph-7-0" x="66.627" y="16.991"/>
<use xlink:href="#glyph-7-1" x="73.678147" y="16.991"/>
</g>
<g fill="rgb(0%, 0%, 0%)" fill-opacity="1">
<use xlink:href="#glyph-7-2" x="84.598778" y="16.991"/>
<use xlink:href="#glyph-7-3" x="88.395734" y="16.991"/>
<use xlink:href="#glyph-7-4" x="92.430996" y="16.991"/>
<use xlink:href="#glyph-7-5" x="97.855446" y="16.991"/>
<use xlink:href="#glyph-7-6" x="103.279896" y="16.991"/>
</g>
</svg>
