<?xml version="1.0" encoding="UTF-8"?>
<svg xmlns="http://www.w3.org/2000/svg" xmlns:xlink="http://www.w3.org/1999/xlink" width="132.677" height="175.143" viewBox="0 0 132.677 175.143">
<defs>
<g>
<g id="glyph-0-0">
<path d="M 2.71875 -5.734375 C 2.71875 -5.953125 2.71875 -5.96875 2.5 -5.96875 C 1.9375 -5.40625 1.109375 -5.40625 0.828125 -5.40625 L 0.828125 -5.125 C 1 -5.125 1.546875 -5.125 2.03125 -5.359375 L 2.03125 -0.71875 C 2.03125 -0.390625 2.015625 -0.28125 1.171875 -0.28125 L 0.890625 -0.28125 L 0.890625 0 C 1.203125 -0.03125 2.015625 -0.03125 2.375 -0.03125 C 2.75 -0.03125 3.546875 -0.03125 3.875 0 L 3.875 -0.28125 L 3.59375 -0.28125 C 2.75 -0.28125 2.71875 -0.390625 2.71875 -0.71875 Z M 2.71875 -5.734375 "/>
</g>
<g id="glyph-0-1">
<path d="M 4.25 -2.875 C 4.25 -3.46875 4.21875 -4.25 3.90625 -4.921875 C 3.5 -5.765625 2.828125 -5.96875 2.3125 -5.96875 C 1.765625 -5.96875 1.078125 -5.765625 0.6875 -4.890625 C 0.40625 -4.28125 0.359375 -3.546875 0.359375 -2.875 C 0.359375 -2.28125 0.375 -1.421875 0.765625 -0.703125 C 1.1875 0.046875 1.890625 0.203125 2.296875 0.203125 C 2.875 0.203125 3.546875 -0.046875 3.921875 -0.875 C 4.1875 -1.484375 4.25 -2.15625 4.25 -2.875 Z M 2.3125 -0.03125 C 2.03125 -0.03125 1.390625 -0.15625 1.21875 -1.171875 C 1.125 -1.6875 1.125 -2.46875 1.125 -2.984375 C 1.125 -3.59375 1.125 -4.296875 1.234375 -4.796875 C 1.421875 -5.59375 1.984375 -5.75 2.296875 -5.75 C 2.640625 -5.75 3.203125 -5.5625 3.375 -4.734375 C 3.46875 -4.25 3.46875 -3.546875 3.46875 -2.984375 C 3.46875 -2.421875 3.46875 -1.671875 3.375 -1.140625 C 3.1875 -0.109375 2.53125 -0.03125 2.3125 -0.03125 Z M 2.3125 -0.03125 "/>
</g>
<g id="glyph-0-2">
<path d="M 4.09375 -6.21875 C 4.015625 -6.375 3.96875 -6.421875 3.828125 -6.421875 C 3.703125 -6.421875 3.65625 -6.375 3.59375 -6.25 L 0.5 -0.21875 C 0.453125 -0.140625 0.4375 -0.09375 0.4375 -0.078125 C 0.4375 0 0.5 0 0.640625 0 L 7.015625 0 C 7.171875 0 7.234375 0 7.234375 -0.078125 C 7.234375 -0.09375 7.234375 -0.109375 7.1875 -0.203125 Z M 3.53125 -5.53125 L 6.03125 -0.6875 L 1.046875 -0.6875 Z M 3.53125 -5.53125 "/>
</g>
<g id="glyph-1-0">
<path d="M 4.765625 -1.34375 C 4.859375 -1.34375 5.015625 -1.34375 5.015625 -1.5 C 5.015625 -1.65625 4.859375 -1.65625 4.765625 -1.65625 L 1 -1.65625 C 0.890625 -1.65625 0.75 -1.65625 0.75 -1.5 C 0.75 -1.34375 0.890625 -1.34375 1 -1.34375 Z M 4.765625 -1.34375 "/>
</g>
<g id="glyph-2-0">
<path d="M 3.21875 -1.125 L 3 -1.125 C 2.984375 -1.03125 2.921875 -0.640625 2.84375 -0.578125 C 2.796875 -0.53125 2.3125 -0.53125 2.21875 -0.53125 L 1.109375 -0.53125 L 1.875 -1.15625 C 2.078125 -1.328125 2.609375 -1.703125 2.796875 -1.890625 C 2.96875 -2.0625 3.21875 -2.375 3.21875 -2.796875 C 3.21875 -3.546875 2.546875 -3.984375 1.734375 -3.984375 C 0.96875 -3.984375 0.4375 -3.46875 0.4375 -2.90625 C 0.4375 -2.609375 0.6875 -2.5625 0.75 -2.5625 C 0.90625 -2.5625 1.078125 -2.671875 1.078125 -2.890625 C 1.078125 -3.015625 1 -3.21875 0.734375 -3.21875 C 0.875 -3.515625 1.234375 -3.75 1.65625 -3.75 C 2.28125 -3.75 2.609375 -3.28125 2.609375 -2.796875 C 2.609375 -2.375 2.328125 -1.9375 1.921875 -1.546875 L 0.5 -0.25 C 0.4375 -0.1875 0.4375 -0.1875 0.4375 0 L 3.03125 0 Z M 3.21875 -1.125 "/>
</g>
<g id="glyph-2-1">
<path d="M 2.140625 -3.796875 C 2.140625 -3.984375 2.125 -3.984375 1.9375 -3.984375 C 1.546875 -3.59375 0.9375 -3.59375 0.71875 -3.59375 L 0.71875 -3.359375 C 0.875 -3.359375 1.28125 -3.359375 1.640625 -3.53125 L 1.640625 -0.515625 C 1.640625 -0.3125 1.640625 -0.234375 1.015625 -0.234375 L 0.765625 -0.234375 L 0.765625 0 C 1.09375 -0.03125 1.5625 -0.03125 1.890625 -0.03125 C 2.21875 -0.03125 2.6875 -0.03125 3.015625 0 L 3.015625 -0.234375 L 2.765625 -0.234375 C 2.140625 -0.234375 2.140625 -0.3125 2.140625 -0.515625 Z M 2.140625 -3.796875 "/>
</g>
<g id="glyph-2-2">
<path d="M 0.96875 -1.984375 C 0.984375 -2.28125 1 -2.78125 1.203125 -3.140625 C 1.46875 -3.609375 1.859375 -3.78125 2.21875 -3.78125 C 2.359375 -3.78125 2.640625 -3.765625 2.78125 -3.59375 C 2.5625 -3.546875 2.515625 -3.40625 2.515625 -3.296875 C 2.515625 -3.140625 2.625 -3.015625 2.8125 -3.015625 C 2.984375 -3.015625 3.09375 -3.125 3.09375 -3.3125 C 3.09375 -3.6875 2.828125 -3.984375 2.21875 -3.984375 C 1.28125 -3.984375 0.375 -3.171875 0.375 -1.890625 C 0.375 -0.4375 1.046875 0.125 1.84375 0.125 C 2.078125 0.125 2.484375 0.09375 2.84375 -0.265625 C 3.046875 -0.453125 3.265625 -0.6875 3.265625 -1.21875 C 3.265625 -1.421875 3.25 -1.8125 2.890625 -2.140625 C 2.671875 -2.34375 2.40625 -2.546875 1.90625 -2.546875 C 1.484375 -2.546875 1.171875 -2.328125 0.96875 -1.984375 Z M 1.84375 -0.09375 C 1 -0.09375 1 -1.125 1 -1.359375 C 1 -1.859375 1.328125 -2.359375 1.875 -2.359375 C 2.1875 -2.359375 2.359375 -2.234375 2.5 -2.046875 C 2.671875 -1.8125 2.671875 -1.53125 2.671875 -1.21875 C 2.671875 -0.8125 2.65625 -0.609375 2.453125 -0.359375 C 2.3125 -0.1875 2.125 -0.09375 1.84375 -0.09375 Z M 1.84375 -0.09375 "/>
</g>
<g id="glyph-2-3">
<path d="M 1.015625 -3.328125 C 1.21875 -3.265625 1.421875 -3.25 1.625 -3.25 C 1.765625 -3.25 2.09375 -3.25 2.46875 -3.453125 C 2.578125 -3.515625 2.9375 -3.765625 2.9375 -3.890625 C 2.9375 -3.96875 2.890625 -3.984375 2.859375 -3.984375 C 2.84375 -3.984375 2.84375 -3.984375 2.765625 -3.953125 C 2.5625 -3.875 2.25 -3.78125 1.859375 -3.78125 C 1.5625 -3.78125 1.25 -3.84375 0.96875 -3.9375 C 0.921875 -3.96875 0.890625 -3.984375 0.875 -3.984375 C 0.78125 -3.984375 0.78125 -3.90625 0.78125 -3.8125 L 0.78125 -2.015625 C 0.78125 -1.921875 0.78125 -1.84375 0.890625 -1.84375 C 0.953125 -1.84375 0.96875 -1.875 1 -1.921875 C 1.15625 -2.109375 1.421875 -2.3125 1.890625 -2.3125 C 2.625 -2.3125 2.625 -1.421875 2.625 -1.234375 C 2.625 -1 2.609375 -0.65625 2.40625 -0.40625 C 2.21875 -0.1875 1.9375 -0.09375 1.6875 -0.09375 C 1.28125 -0.09375 0.859375 -0.3125 0.71875 -0.671875 C 1.015625 -0.671875 1.046875 -0.90625 1.046875 -0.96875 C 1.046875 -1.140625 0.921875 -1.28125 0.734375 -1.28125 C 0.6875 -1.28125 0.4375 -1.25 0.4375 -0.953125 C 0.4375 -0.40625 0.953125 0.125 1.703125 0.125 C 2.53125 0.125 3.21875 -0.453125 3.21875 -1.203125 C 3.21875 -1.890625 2.671875 -2.5 1.890625 -2.5 C 1.515625 -2.5 1.203125 -2.375 1.015625 -2.21875 Z M 1.015625 -3.328125 "/>
</g>
<g id="glyph-2-4">
<path d="M 3.375 -0.984375 L 3.375 -1.21875 L 2.671875 -1.21875 L 2.671875 -3.859375 C 2.671875 -4 2.671875 -4.046875 2.53125 -4.046875 C 2.421875 -4.046875 2.40625 -4.015625 2.359375 -3.953125 L 0.28125 -1.21875 L 0.28125 -0.984375 L 2.140625 -0.984375 L 2.140625 -0.5 C 2.140625 -0.3125 2.140625 -0.234375 1.640625 -0.234375 L 1.453125 -0.234375 L 1.453125 0 C 1.578125 0 2.140625 -0.03125 2.40625 -0.03125 C 2.671875 -0.03125 3.234375 0 3.34375 0 L 3.34375 -0.234375 L 3.171875 -0.234375 C 2.671875 -0.234375 2.671875 -0.3125 2.671875 -0.5 L 2.671875 -0.984375 Z M 2.171875 -3.390625 L 2.171875 -1.21875 L 0.53125 -1.21875 Z M 2.171875 -3.390625 "/>
</g>
<g id="glyph-2-5">
<path d="M 1.765625 -1.984375 C 2.265625 -1.984375 2.609375 -1.640625 2.609375 -1.03125 C 2.609375 -0.375 2.21875 -0.09375 1.78125 -0.09375 C 1.609375 -0.09375 1 -0.125 0.734375 -0.46875 C 0.96875 -0.5 1.0625 -0.65625 1.0625 -0.8125 C 1.0625 -1.015625 0.921875 -1.15625 0.71875 -1.15625 C 0.5625 -1.15625 0.375 -1.046875 0.375 -0.796875 C 0.375 -0.203125 1.03125 0.125 1.796875 0.125 C 2.6875 0.125 3.265625 -0.4375 3.265625 -1.03125 C 3.265625 -1.46875 2.9375 -1.9375 2.21875 -2.109375 C 2.703125 -2.265625 3.078125 -2.65625 3.078125 -3.140625 C 3.078125 -3.625 2.515625 -3.984375 1.796875 -3.984375 C 1.09375 -3.984375 0.5625 -3.65625 0.5625 -3.171875 C 0.5625 -2.90625 0.765625 -2.84375 0.890625 -2.84375 C 1.046875 -2.84375 1.203125 -2.9375 1.203125 -3.15625 C 1.203125 -3.34375 1.078125 -3.453125 0.90625 -3.46875 C 1.1875 -3.78125 1.734375 -3.78125 1.796875 -3.78125 C 2.09375 -3.78125 2.484375 -3.640625 2.484375 -3.140625 C 2.484375 -2.8125 2.296875 -2.234375 1.6875 -2.203125 C 1.578125 -2.203125 1.421875 -2.1875 1.375 -2.1875 C 1.3125 -2.171875 1.25 -2.171875 1.25 -2.078125 C 1.25 -1.984375 1.3125 -1.984375 1.40625 -1.984375 Z M 1.765625 -1.984375 "/>
</g>
<g id="glyph-3-0">
<path d="M 2.71875 -3.3125 L 4.265625 -3.3125 C 4.390625 -3.3125 4.71875 -3.3125 4.71875 -3.625 C 4.71875 -3.859375 4.515625 -3.859375 4.34375 -3.859375 L 1.765625 -3.859375 C 1.546875 -3.859375 1.234375 -3.859375 0.8125 -3.4375 C 0.5625 -3.203125 0.234375 -2.703125 0.234375 -2.640625 C 0.234375 -2.53125 0.34375 -2.53125 0.375 -2.53125 C 0.4375 -2.53125 0.453125 -2.5625 0.515625 -2.640625 C 0.953125 -3.3125 1.5 -3.3125 1.671875 -3.3125 L 2.4375 -3.3125 L 1.515625 -0.34375 C 1.46875 -0.203125 1.46875 -0.1875 1.46875 -0.140625 C 1.46875 -0.015625 1.546875 0.109375 1.75 0.109375 C 2.015625 0.109375 2.09375 -0.109375 2.140625 -0.28125 Z M 2.71875 -3.3125 "/>
</g>
<g id="glyph-4-0">
<path d="M -6.21875 -4.09375 C -6.375 -4.015625 -6.421875 -3.96875 -6.421875 -3.828125 C -6.421875 -3.703125 -6.375 -3.65625 -6.25 -3.59375 L -0.21875 -0.5 C -0.140625 -0.453125 -0.09375 -0.4375 -0.078125 -0.4375 C 0 -0.4375 0 -0.5 0 -0.640625 L 0 -7.015625 C 0 -7.171875 0 -7.234375 -0.078125 -7.234375 C -0.09375 -7.234375 -0.109375 -7.234375 -0.203125 -7.1875 Z M -5.53125 -3.53125 L -0.6875 -6.03125 L -0.6875 -1.046875 Z M -5.53125 -3.53125 "/>
</g>
<g id="glyph-5-0">
<path d="M -3.03125 -2.8125 L -3.03125 -3.734375 C -3.03125 -4.375 -2.921875 -4.5 -2.625 -4.5 C -2.5625 -4.5 -2.375 -4.46875 -2.21875 -4.4375 C -2.171875 -4.421875 -2.125 -4.40625 -2.09375 -4.40625 C -2.09375 -4.40625 -1.984375 -4.40625 -1.984375 -4.53125 C -1.984375 -4.640625 -2.046875 -4.640625 -2.171875 -4.6875 L -4.0625 -5.15625 C -4.1875 -5.1875 -4.203125 -5.1875 -4.25 -5.1875 C -4.3125 -5.1875 -4.359375 -5.140625 -4.359375 -5.0625 C -4.359375 -4.96875 -4.3125 -4.953125 -4.140625 -4.921875 C -3.421875 -4.734375 -3.3125 -4.453125 -3.3125 -3.734375 L -3.3125 -2.890625 C -3.859375 -3.015625 -5.5625 -3.4375 -5.671875 -3.484375 C -5.796875 -3.546875 -5.828125 -3.609375 -5.828125 -3.90625 L -5.828125 -5.21875 C -5.828125 -6.34375 -5.546875 -6.59375 -4.828125 -6.59375 C -4.546875 -6.59375 -4.28125 -6.546875 -4.21875 -6.546875 C -4.140625 -6.546875 -4.078125 -6.59375 -4.078125 -6.671875 C -4.078125 -6.78125 -4.140625 -6.796875 -4.3125 -6.8125 L -5.96875 -7 C -6.09375 -7 -6.09375 -6.90625 -6.09375 -6.734375 L -6.09375 -2.109375 C -6.09375 -1.953125 -6.09375 -1.84375 -5.9375 -1.84375 C -5.828125 -1.84375 -5.828125 -1.9375 -5.828125 -2.125 C -5.828125 -2.15625 -5.828125 -2.328125 -5.796875 -2.46875 C -5.78125 -2.65625 -5.734375 -2.671875 -5.65625 -2.671875 C -5.625 -2.671875 -5.609375 -2.671875 -5.453125 -2.625 L -0.6875 -1.4375 C -0.359375 -1.359375 -0.28125 -1.34375 -0.28125 -0.65625 C -0.28125 -0.5 -0.28125 -0.390625 -0.109375 -0.390625 C 0 -0.390625 0 -0.484375 0 -0.640625 L 0 -5.375 C 0 -5.546875 0 -5.5625 -0.03125 -5.59375 C -0.046875 -5.609375 -0.046875 -5.625 -0.171875 -5.671875 C -0.40625 -5.78125 -2.109375 -6.546875 -2.203125 -6.546875 C -2.265625 -6.546875 -2.3125 -6.5 -2.3125 -6.421875 C -2.3125 -6.34375 -2.3125 -6.34375 -2.09375 -6.25 C -0.84375 -5.6875 -0.28125 -5.3125 -0.28125 -3.828125 L -0.28125 -2.453125 C -0.28125 -2.328125 -0.28125 -2.3125 -0.28125 -2.28125 C -0.296875 -2.1875 -0.3125 -2.15625 -0.375 -2.15625 C -0.390625 -2.15625 -0.40625 -2.15625 -0.578125 -2.203125 Z M -3.03125 -2.8125 "/>
</g>
<g id="glyph-5-1">
<path d="M -6.375 -4.03125 C -6.5 -4.09375 -6.515625 -4.09375 -6.53125 -4.09375 C -6.640625 -4.09375 -6.734375 -4 -6.734375 -3.90625 C -6.734375 -3.78125 -6.65625 -3.734375 -6.640625 -3.734375 L 1.890625 -0.5625 C 2.015625 -0.515625 2.03125 -0.515625 2.046875 -0.515625 C 2.15625 -0.515625 2.25 -0.59375 2.25 -0.703125 C 2.25 -0.796875 2.203125 -0.859375 2.03125 -0.921875 Z M -6.375 -4.03125 "/>
</g>
<g id="glyph-6-0">
<path d="M -1.359375 -2.8125 C -1.359375 -2.9375 -1.359375 -2.984375 -1.5 -2.984375 C -1.953125 -2.984375 -2.671875 -2.734375 -2.671875 -1.734375 C -2.671875 -0.890625 -2.03125 -0.28125 -1.3125 -0.28125 C -0.5625 -0.28125 0.0625 -0.96875 0.0625 -1.8125 C 0.0625 -2.6875 -0.59375 -2.984375 -0.71875 -2.984375 C -0.75 -2.984375 -0.8125 -2.96875 -0.8125 -2.875 C -0.8125 -2.796875 -0.78125 -2.78125 -0.703125 -2.765625 C -0.265625 -2.578125 -0.15625 -2.125 -0.15625 -1.859375 C -0.15625 -1.53125 -0.296875 -1.25 -0.515625 -1.078125 C -0.796875 -0.859375 -1.1875 -0.859375 -1.359375 -0.859375 Z M -1.53125 -0.875 C -2.328125 -0.9375 -2.484375 -1.484375 -2.484375 -1.734375 C -2.484375 -2.5 -1.703125 -2.546875 -1.53125 -2.546875 Z M -1.53125 -0.875 "/>
</g>
<g id="glyph-6-1">
<path d="M -1.40625 -2.125 L -2.015625 -2.71875 C -2.328125 -3.03125 -2.34375 -3.359375 -2.34375 -3.515625 L -2.578125 -3.515625 C -2.578125 -3.4375 -2.5625 -3.171875 -2.5625 -2.984375 C -2.5625 -2.765625 -2.578125 -2.40625 -2.578125 -2.375 L -2.34375 -2.375 C -2.328125 -2.4375 -2.28125 -2.484375 -2.21875 -2.484375 C -2.109375 -2.484375 -2.0625 -2.4375 -1.859375 -2.265625 L -1.5625 -1.96875 L -2.125 -1.453125 C -2.171875 -1.40625 -2.1875 -1.390625 -2.21875 -1.390625 C -2.3125 -1.390625 -2.34375 -1.484375 -2.34375 -1.5625 L -2.578125 -1.5625 C -2.5625 -1.40625 -2.5625 -1 -2.5625 -0.859375 C -2.5625 -0.734375 -2.5625 -0.375 -2.578125 -0.25 L -2.34375 -0.25 C -2.34375 -0.59375 -2.328125 -0.703125 -2.171875 -0.84375 L -1.328125 -1.640625 C -1.28125 -1.671875 -1.28125 -1.6875 -1.265625 -1.6875 C -1.25 -1.6875 -0.6875 -1.140625 -0.625 -1.078125 C -0.46875 -0.921875 -0.234375 -0.703125 -0.234375 -0.203125 L 0 -0.203125 C 0 -0.28125 -0.03125 -0.546875 -0.03125 -0.734375 C -0.03125 -0.828125 -0.015625 -1.234375 0 -1.359375 L -0.234375 -1.359375 C -0.234375 -1.28125 -0.28125 -1.25 -0.359375 -1.25 C -0.46875 -1.25 -0.546875 -1.3125 -0.578125 -1.34375 C -0.765625 -1.5 -0.9375 -1.671875 -1.09375 -1.84375 L -0.53125 -2.375 C -0.390625 -2.484375 -0.390625 -2.484375 -0.359375 -2.484375 C -0.296875 -2.484375 -0.234375 -2.4375 -0.234375 -2.328125 L 0 -2.328125 C -0.015625 -2.53125 -0.03125 -2.984375 -0.03125 -3.03125 C -0.03125 -3.25 0 -3.5625 0 -3.640625 L -0.234375 -3.640625 C -0.234375 -3.34375 -0.234375 -3.1875 -0.40625 -3.03125 Z M -1.40625 -2.125 "/>
</g>
<g id="glyph-6-2">
<path d="M -1.78125 -2.84375 C -2.34375 -2.84375 -2.671875 -2.28125 -2.671875 -1.609375 C -2.671875 -1.3125 -2.640625 -0.609375 -2.140625 -0.609375 C -1.96875 -0.609375 -1.84375 -0.71875 -1.84375 -0.90625 C -1.84375 -1.078125 -1.96875 -1.1875 -2.125 -1.1875 C -2.234375 -1.1875 -2.34375 -1.140625 -2.390625 -1.03125 C -2.484375 -1.234375 -2.484375 -1.53125 -2.484375 -1.59375 C -2.484375 -2.015625 -2.21875 -2.34375 -1.765625 -2.34375 L -1.609375 -2.34375 C -1.609375 -2.078125 -1.59375 -1.59375 -1.4375 -1.15625 C -1.296875 -0.765625 -1.03125 -0.390625 -0.625 -0.390625 C -0.09375 -0.390625 0.0625 -1.015625 0.0625 -1.484375 C 0.0625 -1.984375 -0.1875 -2.28125 -0.421875 -2.421875 C -0.109375 -2.453125 0.03125 -2.65625 0.03125 -2.859375 C 0.03125 -2.890625 0.03125 -3.53125 -0.53125 -3.53125 L -0.875 -3.53125 L -0.875 -3.3125 L -0.546875 -3.3125 C -0.484375 -3.3125 -0.21875 -3.3125 -0.21875 -3.078125 C -0.21875 -2.84375 -0.484375 -2.84375 -0.546875 -2.84375 Z M -0.84375 -2.34375 C -0.234375 -2.34375 -0.125 -1.734375 -0.125 -1.53125 C -0.125 -1.21875 -0.328125 -0.90625 -0.625 -0.90625 C -0.96875 -0.90625 -1.40625 -1.234375 -1.4375 -2.34375 Z M -0.84375 -2.34375 "/>
</g>
<g id="glyph-6-3">
<path d="M -2.40625 -2.453125 C -2.375 -2.390625 -2.296875 -2.328125 -2.171875 -2.328125 C -2.015625 -2.328125 -1.875 -2.4375 -1.875 -2.609375 C -1.875 -2.796875 -2.015625 -2.90625 -2.171875 -2.90625 C -2.65625 -2.90625 -2.671875 -2.28125 -2.671875 -1.890625 C -2.671875 -0.796875 -1.875 -0.328125 -1.296875 -0.328125 C -0.546875 -0.328125 0.0625 -0.984375 0.0625 -1.828125 C 0.0625 -2.78125 -0.65625 -2.984375 -0.71875 -2.984375 C -0.796875 -2.984375 -0.796875 -2.890625 -0.796875 -2.875 C -0.796875 -2.796875 -0.765625 -2.78125 -0.71875 -2.765625 C -0.625 -2.71875 -0.453125 -2.65625 -0.3125 -2.453125 C -0.21875 -2.328125 -0.15625 -2.125 -0.15625 -1.890625 C -0.15625 -1.4375 -0.484375 -0.890625 -1.296875 -0.890625 C -1.5625 -0.890625 -1.890625 -0.9375 -2.140625 -1.15625 C -2.453125 -1.421875 -2.453125 -1.734375 -2.453125 -1.921875 C -2.453125 -2.09375 -2.453125 -2.296875 -2.40625 -2.453125 Z M -2.40625 -2.453125 "/>
</g>
<g id="glyph-6-4">
<path d="M -2.34375 -1.296875 L -2.34375 -2.28125 L -2.578125 -2.28125 L -2.578125 -1.296875 L -3.6875 -1.296875 L -3.6875 -1.078125 C -3.140625 -1.078125 -2.5625 -0.8125 -2.53125 -0.21875 L -2.34375 -0.21875 L -2.34375 -0.8125 L -0.75 -0.8125 C -0.125 -0.8125 0.0625 -1.28125 0.0625 -1.6875 C 0.0625 -2.09375 -0.265625 -2.40625 -0.75 -2.40625 L -1.078125 -2.40625 L -1.078125 -2.171875 L -0.765625 -2.171875 C -0.34375 -2.171875 -0.15625 -1.953125 -0.15625 -1.734375 C -0.15625 -1.296875 -0.640625 -1.296875 -0.75 -1.296875 Z M -2.34375 -1.296875 "/>
</g>
<g id="glyph-7-0">
<path d="M 6.5 -5.328125 C 6.5 -5.484375 6.5 -5.578125 6.328125 -5.578125 C 6.25 -5.578125 6.234375 -5.578125 6.140625 -5.5 L 5.625 -5.03125 C 5.265625 -5.28125 4.75 -5.578125 3.921875 -5.578125 C 1.75 -5.578125 0.546875 -4.3125 0.546875 -2.734375 C 0.546875 -1.171875 1.734375 0.109375 3.9375 0.109375 C 5.5 0.109375 6.5 -0.84375 6.5 -1.8125 C 6.5 -2 6.421875 -2 6.28125 -2 C 6.078125 -2 6.0625 -1.96875 6.0625 -1.765625 C 6 -0.9375 5.15625 -0.296875 4.109375 -0.296875 C 3.234375 -0.296875 2.640625 -0.625 2.328125 -0.96875 C 1.96875 -1.359375 1.8125 -1.90625 1.8125 -2.734375 C 1.8125 -3.078125 1.828125 -3.953125 2.3125 -4.5 C 2.890625 -5.109375 3.71875 -5.15625 4.09375 -5.15625 C 4.90625 -5.15625 5.78125 -4.65625 5.96875 -3.53125 C 6 -3.375 6.0625 -3.375 6.234375 -3.375 C 6.46875 -3.375 6.5 -3.375 6.5 -3.625 Z M 6.5 -5.328125 "/>
</g>
<g id="glyph-7-1">
<path d="M 6.5 -1.78125 L 7.1875 -1.78125 L 7.1875 -2.203125 C 6.59375 -2.171875 6.46875 -2.171875 5.765625 -2.171875 C 5.40625 -2.171875 4.40625 -2.171875 4.09375 -2.203125 L 4.09375 -1.78125 L 5.3125 -1.78125 L 5.3125 -1 C 5.3125 -0.84375 5.3125 -0.609375 4.9375 -0.453125 C 4.640625 -0.3125 4.3125 -0.296875 4.171875 -0.296875 C 3.296875 -0.296875 2.703125 -0.609375 2.40625 -0.90625 C 2.0625 -1.25 1.8125 -1.71875 1.8125 -2.734375 C 1.8125 -3.109375 1.84375 -3.96875 2.3125 -4.5 C 2.890625 -5.109375 3.71875 -5.15625 4.09375 -5.15625 C 4.90625 -5.15625 5.78125 -4.65625 5.96875 -3.53125 C 6 -3.375 6.0625 -3.375 6.234375 -3.375 C 6.46875 -3.375 6.5 -3.375 6.5 -3.625 L 6.5 -5.328125 C 6.5 -5.484375 6.5 -5.578125 6.328125 -5.578125 C 6.25 -5.578125 6.234375 -5.578125 6.140625 -5.5 L 5.625 -5.03125 C 5.265625 -5.28125 4.75 -5.578125 3.921875 -5.578125 C 1.75 -5.578125 0.546875 -4.3125 0.546875 -2.734375 C 0.546875 -1.25 1.640625 0.109375 3.953125 0.109375 C 4.796875 0.109375 5.359375 -0.0625 5.625 -0.359375 C 5.84375 -0.1875 6.296875 0 6.359375 0 C 6.5 0 6.5 -0.140625 6.5 -0.25 Z M 6.5 -1.78125 "/>
</g>
<g id="glyph-7-2">
<path d="M 4.75 -2.703125 C 5.59375 -2.9375 6.0625 -3.421875 6.0625 -3.96875 C 6.0625 -4.828125 5.078125 -5.46875 3.546875 -5.46875 L 0.375 -5.46875 L 0.375 -5.046875 L 1.234375 -5.046875 L 1.234375 -0.421875 L 0.375 -0.421875 L 0.375 0 C 0.6875 -0.03125 1.453125 -0.03125 1.8125 -0.03125 C 2.15625 -0.03125 2.921875 -0.03125 3.234375 0 L 3.234375 -0.421875 L 2.375 -0.421875 L 2.375 -2.5625 L 3.390625 -2.5625 C 3.703125 -2.5625 3.96875 -2.484375 4.1875 -2.265625 C 4.4375 -2.03125 4.4375 -1.859375 4.4375 -1.328125 C 4.4375 -0.78125 4.4375 -0.4375 4.9375 -0.140625 C 5.296875 0.0625 5.859375 0.109375 6.234375 0.109375 C 7.125 0.109375 7.265625 -0.59375 7.265625 -0.78125 C 7.265625 -0.953125 7.125 -0.984375 7.03125 -0.984375 C 6.875 -0.984375 6.828125 -0.90625 6.8125 -0.796875 C 6.765625 -0.296875 6.453125 -0.21875 6.3125 -0.21875 C 5.8125 -0.21875 5.75 -0.734375 5.65625 -1.40625 C 5.59375 -1.9375 5.53125 -2.421875 4.75 -2.703125 Z M 3.40625 -2.90625 L 2.375 -2.90625 L 2.375 -5.046875 L 3.4375 -5.046875 C 4.734375 -5.046875 4.796875 -4.46875 4.796875 -3.96875 C 4.796875 -3.5 4.75 -2.90625 3.40625 -2.90625 Z M 3.40625 -2.90625 "/>
</g>
<g id="glyph-7-3">
<path d="M 3.578125 -4.640625 C 3.65625 -4.6875 3.890625 -4.796875 3.890625 -5.078125 C 3.890625 -5.328125 3.671875 -5.609375 3.375 -5.609375 C 3.234375 -5.609375 3.109375 -5.53125 3.015625 -5.421875 L 2.03125 -4.375 L 2.28125 -4.03125 Z M 3.578125 -4.640625 "/>
</g>
<g id="glyph-7-4">
<path d="M 3.921875 -1.6875 C 4.09375 -1.6875 4.1875 -1.6875 4.1875 -1.921875 C 4.1875 -2.265625 4.109375 -2.78125 3.71875 -3.171875 C 3.265625 -3.625 2.546875 -3.625 2.359375 -3.625 C 0.953125 -3.625 0.265625 -2.734375 0.265625 -1.796875 C 0.265625 -0.765625 1.0625 0.0625 2.484375 0.0625 C 3.890625 0.0625 4.1875 -0.8125 4.1875 -0.921875 C 4.1875 -1.078125 4.03125 -1.078125 3.96875 -1.078125 C 3.828125 -1.078125 3.796875 -1.0625 3.734375 -0.9375 C 3.484375 -0.375 2.8125 -0.3125 2.578125 -0.3125 C 1.40625 -0.3125 1.359375 -1.25 1.34375 -1.6875 Z M 1.34375 -2 C 1.359375 -2.3125 1.390625 -3.296875 2.375 -3.296875 C 3.359375 -3.296875 3.40625 -2.3125 3.40625 -2 Z M 1.34375 -2 "/>
</g>
<g id="glyph-7-5">
<path d="M 4.65625 -2.421875 C 4.65625 -3.390625 4.046875 -3.59375 3.34375 -3.59375 C 2.375 -3.59375 1.9375 -2.953125 1.84375 -2.78125 L 1.84375 -3.59375 L 0.453125 -3.53125 L 0.453125 -3.109375 C 0.921875 -3.109375 0.96875 -3.109375 0.96875 -2.8125 L 0.96875 -0.421875 L 0.453125 -0.421875 L 0.453125 0 C 0.875 -0.03125 1.15625 -0.03125 1.453125 -0.03125 C 1.765625 -0.03125 2.046875 -0.03125 2.46875 0 L 2.46875 -0.421875 L 1.9375 -0.421875 L 1.9375 -2.015625 C 1.9375 -2.90625 2.703125 -3.265625 3.21875 -3.265625 C 3.5 -3.265625 3.6875 -3.125 3.6875 -2.5 L 3.6875 -0.421875 L 3.15625 -0.421875 L 3.15625 0 C 3.578125 -0.03125 3.859375 -0.03125 4.171875 -0.03125 C 4.484375 -0.03125 4.75 -0.03125 5.171875 0 L 5.171875 -0.421875 L 4.65625 -0.421875 Z M 4.65625 -2.421875 "/>
</g>
<g id="glyph-7-6">
<path d="M 4.328125 -2.953125 C 4.40625 -3.09375 4.421875 -3.125 4.90625 -3.125 L 4.90625 -3.53125 C 4.609375 -3.515625 4.59375 -3.515625 4.25 -3.515625 C 4.1875 -3.515625 3.765625 -3.515625 3.53125 -3.53125 L 3.53125 -3.125 C 3.53125 -3.125 3.859375 -3.125 3.859375 -3.046875 C 3.859375 -3.015625 3.828125 -2.96875 3.8125 -2.9375 L 2.84375 -1.015625 L 1.78125 -3.125 L 2.15625 -3.125 L 2.15625 -3.53125 C 1.6875 -3.515625 1.515625 -3.515625 1.171875 -3.515625 C 0.984375 -3.515625 0.5625 -3.515625 0.234375 -3.53125 L 0.234375 -3.125 L 0.734375 -3.125 L 2.3125 0 C 1.984375 0.671875 1.921875 0.75 1.875 0.84375 C 1.5625 1.234375 1.234375 1.265625 1.09375 1.265625 C 1.03125 1.265625 1 1.265625 0.953125 1.25 C 1.109375 1.140625 1.1875 0.984375 1.1875 0.8125 C 1.1875 0.5 0.953125 0.3125 0.6875 0.3125 C 0.4375 0.3125 0.1875 0.5 0.1875 0.828125 C 0.1875 1.25 0.578125 1.609375 1.09375 1.609375 C 1.859375 1.609375 2.34375 0.9375 2.453125 0.71875 Z M 4.328125 -2.953125 "/>
</g>
<g id="glyph-7-7">
<path d="M 1.984375 -4.90625 C 1.984375 -5.25 1.71875 -5.53125 1.359375 -5.53125 C 1.015625 -5.53125 0.71875 -5.265625 0.71875 -4.90625 C 0.71875 -4.53125 1.015625 -4.265625 1.359375 -4.265625 C 1.71875 -4.265625 1.984375 -4.5625 1.984375 -4.90625 Z M 0.5 -3.53125 L 0.5 -3.109375 C 0.9375 -3.109375 1 -3.109375 1 -2.8125 L 1 -0.421875 L 0.46875 -0.421875 L 0.46875 0 C 0.9375 -0.03125 1.015625 -0.03125 1.4375 -0.03125 C 1.765625 -0.03125 2 -0.03125 2.390625 0 L 2.390625 -0.421875 L 1.921875 -0.421875 L 1.921875 -3.59375 Z M 0.5 -3.53125 "/>
</g>
<g id="glyph-7-8">
<path d="M 2.703125 -1.359375 L 2.703125 -2.1875 L 0.109375 -2.1875 L 0.109375 -1.359375 Z M 2.703125 -1.359375 "/>
</g>
<g id="glyph-7-9">
<path d="M 4.5 -2.546875 C 4.5 -3.46875 4.421875 -5.25 2.4375 -5.25 C 0.453125 -5.25 0.375 -3.453125 0.375 -2.546875 C 0.375 -1.65625 0.4375 0.109375 2.4375 0.109375 C 4.453125 0.109375 4.5 -1.65625 4.5 -2.546875 Z M 2.4375 -0.21875 C 2.21875 -0.21875 2 -0.296875 1.828125 -0.4375 C 1.578125 -0.65625 1.453125 -0.765625 1.453125 -2.640625 C 1.453125 -3.21875 1.453125 -3.796875 1.53125 -4.1875 C 1.640625 -4.75 2.140625 -4.90625 2.4375 -4.90625 C 2.625 -4.90625 3.234375 -4.859375 3.359375 -4.109375 C 3.421875 -3.71875 3.421875 -3.09375 3.421875 -2.640625 C 3.421875 -0.8125 3.3125 -0.703125 3.0625 -0.46875 C 3 -0.390625 2.765625 -0.21875 2.4375 -0.21875 Z M 2.4375 -0.21875 "/>
</g>
<g id="glyph-7-10">
<path d="M 1.984375 -0.640625 C 1.984375 -0.984375 1.703125 -1.28125 1.359375 -1.28125 C 1 -1.28125 0.71875 -0.984375 0.71875 -0.640625 C 0.71875 -0.28125 1 0 1.359375 0 C 1.703125 0 1.984375 -0.28125 1.984375 -0.640625 Z M 1.984375 -0.640625 "/>
</g>
<g id="glyph-7-11">
<path d="M 1.40625 -4 C 1.65625 -3.953125 1.921875 -3.953125 1.96875 -3.953125 C 2.1875 -3.953125 2.71875 -3.953125 3.328125 -4.328125 C 3.53125 -4.46875 4.015625 -4.875 4.015625 -5.078125 C 4.015625 -5.203125 3.9375 -5.25 3.859375 -5.25 C 3.84375 -5.25 3.828125 -5.25 3.75 -5.203125 C 3.359375 -5.0625 2.890625 -4.984375 2.453125 -4.984375 C 2.09375 -4.984375 1.640625 -5.03125 1.109375 -5.21875 C 1.046875 -5.25 1.03125 -5.25 1.015625 -5.25 C 0.875 -5.25 0.875 -5.109375 0.875 -5 L 0.875 -2.65625 C 0.875 -2.5 0.875 -2.375 1.09375 -2.375 C 1.21875 -2.375 1.234375 -2.40625 1.3125 -2.5 C 1.640625 -2.875 2.125 -2.953125 2.4375 -2.953125 C 3.203125 -2.953125 3.203125 -2.21875 3.203125 -1.625 C 3.203125 -1.0625 3.203125 -0.265625 2.171875 -0.265625 C 1.75 -0.265625 1.359375 -0.4375 1.140625 -0.703125 C 1.46875 -0.75 1.640625 -1.015625 1.640625 -1.28125 C 1.640625 -1.640625 1.34375 -1.84375 1.0625 -1.84375 C 0.8125 -1.84375 0.484375 -1.6875 0.484375 -1.265625 C 0.484375 -0.546875 1.15625 0.109375 2.203125 0.109375 C 3.625 0.109375 4.390625 -0.65625 4.390625 -1.609375 C 4.390625 -2.5 3.75 -3.28125 2.46875 -3.28125 C 2.09375 -3.28125 1.71875 -3.21875 1.40625 -3.015625 Z M 1.40625 -4 "/>
</g>
</g>
<clipPath id="clip-0">
<path clip-rule="nonzero" d="M 41 0 L 43 0 L 43 175.144531 L 41 175.144531 Z M 41 0 "/>
</clipPath>
<clipPath id="clip-1">
<path clip-rule="nonzero" d="M 41 27 L 132.675781 27 L 132.675781 140 L 41 140 Z M 41 27 "/>
</clipPath>
<clipPath id="clip-2">
<path clip-rule="nonzero" d="M 41 26 L 132.675781 26 L 132.675781 140 L 41 140 Z M 41 26 "/>
</clipPath>
<clipPath id="clip-3">
<path clip-rule="nonzero" d="M 41 26 L 132.675781 26 L 132.675781 141 L 41 141 Z M 41 26 "/>
</clipPath>
<clipPath id="clip-4">
<path clip-rule="nonzero" d="M 41.769531 35 L 132.476562 35 L 132.476562 78 L 41.769531 78 Z M 41.769531 35 "/>
</clipPath>
<clipPath id="clip-5">
<path clip-rule="nonzero" d="M 41.769531 41 L 132.476562 41 L 132.476562 127 L 41.769531 127 Z M 41.769531 41 "/>
</clipPath>
<clipPath id="clip-6">
<path clip-rule="nonzero" d="M 41.769531 41 L 132.476562 41 L 132.476562 139.878906 L 41.769531 139.878906 Z M 41.769531 41 "/>
</clipPath>
<clipPath id="clip-7">
<path clip-rule="nonzero" d="M 106 33 L 132.675781 33 L 132.675781 72 L 106 72 Z M 106 33 "/>
</clipPath>
<clipPath id="clip-8">
<path clip-rule="nonzero" d="M 98 37 L 132.675781 37 L 132.675781 76 L 98 76 Z M 98 37 "/>
</clipPath>
<clipPath id="clip-9">
<path clip-rule="nonzero" d="M 106 39 L 132.675781 39 L 132.675781 78 L 106 78 Z M 106 39 "/>
</clipPath>
<clipPath id="clip-10">
<path clip-rule="nonzero" d="M 98 49 L 132.675781 49 L 132.675781 88 L 98 88 Z M 98 49 "/>
</clipPath>
<clipPath id="clip-11">
<path clip-rule="nonzero" d="M 106 39 L 132.675781 39 L 132.675781 78 L 106 78 Z M 106 39 "/>
</clipPath>
<clipPath id="clip-12">
<path clip-rule="nonzero" d="M 98 49 L 132.675781 49 L 132.675781 88 L 98 88 Z M 98 49 "/>
</clipPath>
</defs>
<g clip-path="url(#clip-0)">
<path fill="none" stroke-width="0.79701" stroke-linecap="butt" stroke-linejoin="miter" stroke="rgb(100%, 100%, 100%)" stroke-opacity="1" stroke-miterlimit="10" d="M -0.00046875 -34.871094 L -0.00046875 139.480469 " transform="matrix(1, 0, 0, -1, 41.77, 139.875)"/>
</g>
<path fill="none" stroke-width="0.19925" stroke-linecap="butt" stroke-linejoin="miter" stroke="rgb(50%, 50%, 50%)" stroke-opacity="1" stroke-miterlimit="10" d="M -95.878406 -136.067906 L -95.878406 -133.231969 M -93.296375 -136.067906 L -93.296375 -133.231969 M -91.019031 -136.067906 L -91.019031 -133.231969 M -88.983875 -136.067906 L -88.983875 -133.231969 M -75.589344 -136.067906 L -75.589344 -133.231969 M -67.757313 -136.067906 L -67.757313 -133.231969 M -62.198719 -136.067906 L -62.198719 -133.231969 M -57.886219 -136.067906 L -57.886219 -133.231969 M -54.362781 -136.067906 L -54.362781 -133.231969 M -51.382313 -136.067906 L -51.382313 -133.231969 M -48.804188 -136.067906 L -48.804188 -133.231969 M -46.526844 -136.067906 L -46.526844 -133.231969 M -44.491688 -136.067906 L -44.491688 -133.231969 M -31.097156 -136.067906 L -31.097156 -133.231969 M -23.265125 -136.067906 L -23.265125 -133.231969 M -17.706531 -136.067906 L -17.706531 -133.231969 M -13.394031 -136.067906 L -13.394031 -133.231969 M -9.870594 -136.067906 L -9.870594 -133.231969 M -6.890125 -136.067906 L -6.890125 -133.231969 M -95.878406 -22.677281 L -95.878406 -25.513219 M -93.296375 -22.677281 L -93.296375 -25.513219 M -91.019031 -22.677281 L -91.019031 -25.513219 M -88.983875 -22.677281 L -88.983875 -25.513219 M -75.589344 -22.677281 L -75.589344 -25.513219 M -67.757313 -22.677281 L -67.757313 -25.513219 M -62.198719 -22.677281 L -62.198719 -25.513219 M -57.886219 -22.677281 L -57.886219 -25.513219 M -54.362781 -22.677281 L -54.362781 -25.513219 M -51.382313 -22.677281 L -51.382313 -25.513219 M -48.804188 -22.677281 L -48.804188 -25.513219 M -46.526844 -22.677281 L -46.526844 -25.513219 M -44.491688 -22.677281 L -44.491688 -25.513219 M -31.097156 -22.677281 L -31.097156 -25.513219 M -23.265125 -22.677281 L -23.265125 -25.513219 M -17.706531 -22.677281 L -17.706531 -25.513219 M -13.394031 -22.677281 L -13.394031 -25.513219 M -9.870594 -22.677281 L -9.870594 -25.513219 M -6.890125 -22.677281 L -6.890125 -25.513219 " transform="matrix(1, 0, 0, -1, 138.312, 3.811)"/>
<path fill="none" stroke-width="0.19925" stroke-linecap="butt" stroke-linejoin="miter" stroke="rgb(50%, 50%, 50%)" stroke-opacity="1" stroke-miterlimit="10" d="M -88.983875 -136.067906 L -88.983875 -131.814 M -44.491688 -136.067906 L -44.491688 -131.814 M -88.983875 -22.677281 L -88.983875 -26.927281 M -44.491688 -22.677281 L -44.491688 -26.927281 " transform="matrix(1, 0, 0, -1, 138.312, 3.811)"/>
<g clip-path="url(#clip-1)">
<path fill="none" stroke-width="0.19925" stroke-linecap="butt" stroke-linejoin="miter" stroke="rgb(50%, 50%, 50%)" stroke-opacity="1" stroke-miterlimit="10" d="M -96.542469 -136.067906 L -93.714344 -136.067906 M -96.542469 -129.239781 L -93.714344 -129.239781 M -96.542469 -125.247594 L -93.714344 -125.247594 M -96.542469 -122.411656 L -93.714344 -122.411656 M -96.542469 -120.216344 L -93.714344 -120.216344 M -96.542469 -118.419469 L -93.714344 -118.419469 M -96.542469 -116.899938 L -93.714344 -116.899938 M -96.542469 -115.587438 L -93.714344 -115.587438 M -96.542469 -114.427281 L -93.714344 -114.427281 M -96.542469 -113.388219 L -93.714344 -113.388219 M -96.542469 -106.560094 L -93.714344 -106.560094 M -96.542469 -102.567906 L -93.714344 -102.567906 M -96.542469 -99.735875 L -93.714344 -99.735875 M -96.542469 -97.536656 L -93.714344 -97.536656 M -96.542469 -95.739781 L -93.714344 -95.739781 M -96.542469 -94.224156 L -93.714344 -94.224156 M -96.542469 -92.90775 L -93.714344 -92.90775 M -96.542469 -91.747594 L -93.714344 -91.747594 M -96.542469 -90.712438 L -93.714344 -90.712438 M -96.542469 -83.884313 L -93.714344 -83.884313 M -96.542469 -79.892125 L -93.714344 -79.892125 M -96.542469 -77.056188 L -93.714344 -77.056188 M -96.542469 -74.860875 L -93.714344 -74.860875 M -96.542469 -73.064 L -93.714344 -73.064 M -96.542469 -71.544469 L -93.714344 -71.544469 M -96.542469 -70.231969 L -93.714344 -70.231969 M -96.542469 -69.071813 L -93.714344 -69.071813 M -96.542469 -68.03275 L -93.714344 -68.03275 M -96.542469 -61.204625 L -93.714344 -61.204625 M -96.542469 -57.212438 L -93.714344 -57.212438 M -96.542469 -54.380406 L -93.714344 -54.380406 M -96.542469 -52.181188 L -93.714344 -52.181188 M -96.542469 -50.384313 L -93.714344 -50.384313 M -96.542469 -48.868688 L -93.714344 -48.868688 M -96.542469 -47.552281 L -93.714344 -47.552281 M -96.542469 -46.392125 L -93.714344 -46.392125 M -96.542469 -45.356969 L -93.714344 -45.356969 M -96.542469 -38.528844 L -93.714344 -38.528844 M -96.542469 -34.536656 L -93.714344 -34.536656 M -96.542469 -31.700719 L -93.714344 -31.700719 M -96.542469 -29.505406 L -93.714344 -29.505406 M -96.542469 -27.708531 L -93.714344 -27.708531 M -96.542469 -26.189 L -93.714344 -26.189 M -96.542469 -24.8765 L -93.714344 -24.8765 M -96.542469 -23.716344 L -93.714344 -23.716344 M -5.835438 -136.067906 L -8.667469 -136.067906 M -5.835438 -129.239781 L -8.667469 -129.239781 M -5.835438 -125.247594 L -8.667469 -125.247594 M -5.835438 -122.411656 L -8.667469 -122.411656 M -5.835438 -120.216344 L -8.667469 -120.216344 M -5.835438 -118.419469 L -8.667469 -118.419469 M -5.835438 -116.899938 L -8.667469 -116.899938 M -5.835438 -115.587438 L -8.667469 -115.587438 M -5.835438 -114.427281 L -8.667469 -114.427281 M -5.835438 -113.388219 L -8.667469 -113.388219 M -5.835438 -106.560094 L -8.667469 -106.560094 M -5.835438 -102.567906 L -8.667469 -102.567906 M -5.835438 -99.735875 L -8.667469 -99.735875 M -5.835438 -97.536656 L -8.667469 -97.536656 M -5.835438 -95.739781 L -8.667469 -95.739781 M -5.835438 -94.224156 L -8.667469 -94.224156 M -5.835438 -92.90775 L -8.667469 -92.90775 M -5.835438 -91.747594 L -8.667469 -91.747594 M -5.835438 -90.712438 L -8.667469 -90.712438 M -5.835438 -83.884313 L -8.667469 -83.884313 M -5.835438 -79.892125 L -8.667469 -79.892125 M -5.835438 -77.056188 L -8.667469 -77.056188 M -5.835438 -74.860875 L -8.667469 -74.860875 M -5.835438 -73.064 L -8.667469 -73.064 M -5.835438 -71.544469 L -8.667469 -71.544469 M -5.835438 -70.231969 L -8.667469 -70.231969 M -5.835438 -69.071813 L -8.667469 -69.071813 M -5.835438 -68.03275 L -8.667469 -68.03275 M -5.835438 -61.204625 L -8.667469 -61.204625 M -5.835438 -57.212438 L -8.667469 -57.212438 M -5.835438 -54.380406 L -8.667469 -54.380406 M -5.835438 -52.181188 L -8.667469 -52.181188 M -5.835438 -50.384313 L -8.667469 -50.384313 M -5.835438 -48.868688 L -8.667469 -48.868688 M -5.835438 -47.552281 L -8.667469 -47.552281 M -5.835438 -46.392125 L -8.667469 -46.392125 M -5.835438 -45.356969 L -8.667469 -45.356969 M -5.835438 -38.528844 L -8.667469 -38.528844 M -5.835438 -34.536656 L -8.667469 -34.536656 M -5.835438 -31.700719 L -8.667469 -31.700719 M -5.835438 -29.505406 L -8.667469 -29.505406 M -5.835438 -27.708531 L -8.667469 -27.708531 M -5.835438 -26.189 L -8.667469 -26.189 M -5.835438 -24.8765 L -8.667469 -24.8765 M -5.835438 -23.716344 L -8.667469 -23.716344 " transform="matrix(1, 0, 0, -1, 138.312, 3.811)"/>
</g>
<g clip-path="url(#clip-2)">
<path fill="none" stroke-width="0.19925" stroke-linecap="butt" stroke-linejoin="miter" stroke="rgb(50%, 50%, 50%)" stroke-opacity="1" stroke-miterlimit="10" d="M -96.542469 -136.067906 L -92.296375 -136.067906 M -96.542469 -113.388219 L -92.296375 -113.388219 M -96.542469 -90.712438 L -92.296375 -90.712438 M -96.542469 -68.03275 L -92.296375 -68.03275 M -96.542469 -45.356969 L -92.296375 -45.356969 M -96.542469 -22.677281 L -92.296375 -22.677281 M -5.835438 -136.067906 L -10.081531 -136.067906 M -5.835438 -113.388219 L -10.081531 -113.388219 M -5.835438 -90.712438 L -10.081531 -90.712438 M -5.835438 -68.03275 L -10.081531 -68.03275 M -5.835438 -45.356969 L -10.081531 -45.356969 M -5.835438 -22.677281 L -10.081531 -22.677281 " transform="matrix(1, 0, 0, -1, 138.312, 3.811)"/>
</g>
<g clip-path="url(#clip-3)">
<path fill="none" stroke-width="0.3985" stroke-linecap="butt" stroke-linejoin="miter" stroke="rgb(0%, 0%, 0%)" stroke-opacity="1" stroke-miterlimit="10" d="M -96.542469 -136.067906 L -96.542469 -22.677281 L -5.835438 -22.677281 L -5.835438 -136.067906 Z M -96.542469 -136.067906 " transform="matrix(1, 0, 0, -1, 138.312, 3.811)"/>
</g>
<g fill="rgb(0%, 0%, 0%)" fill-opacity="1">
<use xlink:href="#glyph-0-0" x="39.768" y="151.056"/>
<use xlink:href="#glyph-0-1" x="44.375833" y="151.056"/>
</g>
<g fill="rgb(0%, 0%, 0%)" fill-opacity="1">
<use xlink:href="#glyph-1-0" x="48.983" y="147.247"/>
</g>
<g fill="rgb(0%, 0%, 0%)" fill-opacity="1">
<use xlink:href="#glyph-2-0" x="54.739" y="147.247"/>
</g>
<g fill="rgb(0%, 0%, 0%)" fill-opacity="1">
<use xlink:href="#glyph-0-0" x="84.259" y="151.056"/>
<use xlink:href="#glyph-0-1" x="88.866833" y="151.056"/>
</g>
<g fill="rgb(0%, 0%, 0%)" fill-opacity="1">
<use xlink:href="#glyph-1-0" x="93.475" y="147.247"/>
</g>
<g fill="rgb(0%, 0%, 0%)" fill-opacity="1">
<use xlink:href="#glyph-2-1" x="99.231" y="147.247"/>
</g>
<g fill="rgb(0%, 0%, 0%)" fill-opacity="1">
<use xlink:href="#glyph-0-0" x="19.127" y="143.706"/>
<use xlink:href="#glyph-0-1" x="23.734833" y="143.706"/>
</g>
<g fill="rgb(0%, 0%, 0%)" fill-opacity="1">
<use xlink:href="#glyph-1-0" x="28.343" y="139.897"/>
</g>
<g fill="rgb(0%, 0%, 0%)" fill-opacity="1">
<use xlink:href="#glyph-2-2" x="34.099" y="139.897"/>
</g>
<g fill="rgb(0%, 0%, 0%)" fill-opacity="1">
<use xlink:href="#glyph-0-0" x="19.127" y="121.028"/>
<use xlink:href="#glyph-0-1" x="23.734833" y="121.028"/>
</g>
<g fill="rgb(0%, 0%, 0%)" fill-opacity="1">
<use xlink:href="#glyph-1-0" x="28.343" y="117.219"/>
</g>
<g fill="rgb(0%, 0%, 0%)" fill-opacity="1">
<use xlink:href="#glyph-2-3" x="34.099" y="117.219"/>
</g>
<g fill="rgb(0%, 0%, 0%)" fill-opacity="1">
<use xlink:href="#glyph-0-0" x="19.127" y="98.351"/>
<use xlink:href="#glyph-0-1" x="23.734833" y="98.351"/>
</g>
<g fill="rgb(0%, 0%, 0%)" fill-opacity="1">
<use xlink:href="#glyph-1-0" x="28.343" y="94.542"/>
</g>
<g fill="rgb(0%, 0%, 0%)" fill-opacity="1">
<use xlink:href="#glyph-2-4" x="34.099" y="94.542"/>
</g>
<g fill="rgb(0%, 0%, 0%)" fill-opacity="1">
<use xlink:href="#glyph-0-0" x="19.127" y="75.674"/>
<use xlink:href="#glyph-0-1" x="23.734833" y="75.674"/>
</g>
<g fill="rgb(0%, 0%, 0%)" fill-opacity="1">
<use xlink:href="#glyph-1-0" x="28.343" y="71.865"/>
</g>
<g fill="rgb(0%, 0%, 0%)" fill-opacity="1">
<use xlink:href="#glyph-2-5" x="34.099" y="71.865"/>
</g>
<g fill="rgb(0%, 0%, 0%)" fill-opacity="1">
<use xlink:href="#glyph-0-0" x="19.127" y="52.996"/>
<use xlink:href="#glyph-0-1" x="23.734833" y="52.996"/>
</g>
<g fill="rgb(0%, 0%, 0%)" fill-opacity="1">
<use xlink:href="#glyph-1-0" x="28.342" y="49.187"/>
</g>
<g fill="rgb(0%, 0%, 0%)" fill-opacity="1">
<use xlink:href="#glyph-2-0" x="34.099" y="49.187"/>
</g>
<g fill="rgb(0%, 0%, 0%)" fill-opacity="1">
<use xlink:href="#glyph-0-0" x="19.127" y="30.319"/>
<use xlink:href="#glyph-0-1" x="23.734833" y="30.319"/>
</g>
<g fill="rgb(0%, 0%, 0%)" fill-opacity="1">
<use xlink:href="#glyph-1-0" x="28.342" y="26.51"/>
</g>
<g fill="rgb(0%, 0%, 0%)" fill-opacity="1">
<use xlink:href="#glyph-2-1" x="34.099" y="26.51"/>
</g>
<g clip-path="url(#clip-4)">
<path fill="none" stroke-width="1.19553" stroke-linecap="butt" stroke-linejoin="miter" stroke="rgb(41.96167%, 68.232727%, 83.921814%)" stroke-opacity="1" stroke-miterlimit="10" d="M -13.394031 -48.993688 L -20.952625 -52.735875 L -28.511219 -55.618688 L -36.073719 -56.653844 L -43.632313 -56.974156 L -51.190906 -56.927281 L -58.7495 -56.53275 L -66.308094 -55.97025 L -73.866688 -55.255406 L -81.425281 -54.497594 L -88.983875 -53.78275 " transform="matrix(1, 0, 0, -1, 138.312, 3.811)"/>
</g>
<g clip-path="url(#clip-5)">
<path fill="none" stroke-width="1.19553" stroke-linecap="butt" stroke-linejoin="miter" stroke="rgb(19.216919%, 50.979614%, 74.116516%)" stroke-opacity="1" stroke-miterlimit="10" d="M -13.394031 -54.314 L -20.952625 -64.90775 L -28.511219 -76.892125 L -36.073719 -89.458531 L -43.632313 -100.466344 L -51.190906 -105.84525 L -58.7495 -104.868688 L -66.308094 -103.774938 L -73.866688 -99.962438 L -81.425281 -97.259313 L -88.983875 -91.634313 " transform="matrix(1, 0, 0, -1, 138.312, 3.811)"/>
</g>
<g clip-path="url(#clip-6)">
<path fill="none" stroke-width="1.19553" stroke-linecap="butt" stroke-linejoin="miter" stroke="rgb(3.135681%, 31.765747%, 61.175537%)" stroke-opacity="1" stroke-miterlimit="10" d="M -13.394031 -54.325719 L -20.952625 -65.005406 L -28.511219 -77.360875 L -36.073719 -90.872594 L -43.632313 -104.884313 L -51.190906 -116.642125 L -58.7495 -122.954625 L -66.308094 -121.59525 L -73.866688 -117.915563 L -81.425281 -114.731969 L -88.983875 -111.450719 " transform="matrix(1, 0, 0, -1, 138.312, 3.811)"/>
</g>
<path fill-rule="nonzero" fill="rgb(41.96167%, 68.232727%, 83.921814%)" fill-opacity="1" d="M 126.910156 52.804688 C 126.910156 51.707031 126.019531 50.8125 124.917969 50.8125 C 123.816406 50.8125 122.925781 51.707031 122.925781 52.804688 C 122.925781 53.90625 123.816406 54.800781 124.917969 54.800781 C 126.019531 54.800781 126.910156 53.90625 126.910156 52.804688 Z M 126.910156 52.804688 "/>
<g clip-path="url(#clip-7)">
<path fill="none" stroke-width="1.19553" stroke-linecap="butt" stroke-linejoin="miter" stroke="rgb(41.96167%, 68.232727%, 83.921814%)" stroke-opacity="1" stroke-miterlimit="10" d="M -11.401844 -48.993688 C -11.401844 -47.896031 -12.292469 -47.0015 -13.394031 -47.0015 C -14.495594 -47.0015 -15.386219 -47.896031 -15.386219 -48.993688 C -15.386219 -50.09525 -14.495594 -50.989781 -13.394031 -50.989781 C -12.292469 -50.989781 -11.401844 -50.09525 -11.401844 -48.993688 Z M -11.401844 -48.993688 " transform="matrix(1, 0, 0, -1, 138.312, 3.811)"/>
</g>
<path fill-rule="nonzero" fill="rgb(41.96167%, 68.232727%, 83.921814%)" fill-opacity="1" d="M 119.351562 56.546875 C 119.351562 55.449219 118.460938 54.554688 117.359375 54.554688 C 116.257812 54.554688 115.367188 55.449219 115.367188 56.546875 C 115.367188 57.648438 116.257812 58.539062 117.359375 58.539062 C 118.460938 58.539062 119.351562 57.648438 119.351562 56.546875 Z M 119.351562 56.546875 "/>
<g clip-path="url(#clip-8)">
<path fill="none" stroke-width="1.19553" stroke-linecap="butt" stroke-linejoin="miter" stroke="rgb(41.96167%, 68.232727%, 83.921814%)" stroke-opacity="1" stroke-miterlimit="10" d="M -18.960438 -52.735875 C -18.960438 -51.638219 -19.851063 -50.743688 -20.952625 -50.743688 C -22.054188 -50.743688 -22.944813 -51.638219 -22.944813 -52.735875 C -22.944813 -53.837438 -22.054188 -54.728063 -20.952625 -54.728063 C -19.851063 -54.728063 -18.960438 -53.837438 -18.960438 -52.735875 Z M -18.960438 -52.735875 " transform="matrix(1, 0, 0, -1, 138.312, 3.811)"/>
</g>
<path fill-rule="nonzero" fill="rgb(41.96167%, 68.232727%, 83.921814%)" fill-opacity="1" stroke-width="1.19553" stroke-linecap="butt" stroke-linejoin="miter" stroke="rgb(41.96167%, 68.232727%, 83.921814%)" stroke-opacity="1" stroke-miterlimit="10" d="M -26.519031 -55.618688 C -26.519031 -54.517125 -27.413563 -53.6265 -28.511219 -53.6265 C -29.612781 -53.6265 -30.503406 -54.517125 -30.503406 -55.618688 C -30.503406 -56.72025 -29.612781 -57.610875 -28.511219 -57.610875 C -27.413563 -57.610875 -26.519031 -56.72025 -26.519031 -55.618688 Z M -26.519031 -55.618688 " transform="matrix(1, 0, 0, -1, 138.312, 3.811)"/>
<path fill-rule="nonzero" fill="rgb(41.96167%, 68.232727%, 83.921814%)" fill-opacity="1" stroke-width="1.19553" stroke-linecap="butt" stroke-linejoin="miter" stroke="rgb(41.96167%, 68.232727%, 83.921814%)" stroke-opacity="1" stroke-miterlimit="10" d="M -34.077625 -56.653844 C -34.077625 -55.552281 -34.972156 -54.661656 -36.073719 -54.661656 C -37.171375 -54.661656 -38.065906 -55.552281 -38.065906 -56.653844 C -38.065906 -57.755406 -37.171375 -58.646031 -36.073719 -58.646031 C -34.972156 -58.646031 -34.077625 -57.755406 -34.077625 -56.653844 Z M -34.077625 -56.653844 " transform="matrix(1, 0, 0, -1, 138.312, 3.811)"/>
<path fill-rule="nonzero" fill="rgb(41.96167%, 68.232727%, 83.921814%)" fill-opacity="1" stroke-width="1.19553" stroke-linecap="butt" stroke-linejoin="miter" stroke="rgb(41.96167%, 68.232727%, 83.921814%)" stroke-opacity="1" stroke-miterlimit="10" d="M -41.640125 -56.974156 C -41.640125 -55.872594 -42.53075 -54.981969 -43.632313 -54.981969 C -44.729969 -54.981969 -45.6245 -55.872594 -45.6245 -56.974156 C -45.6245 -58.075719 -44.729969 -58.966344 -43.632313 -58.966344 C -42.53075 -58.966344 -41.640125 -58.075719 -41.640125 -56.974156 Z M -41.640125 -56.974156 " transform="matrix(1, 0, 0, -1, 138.312, 3.811)"/>
<path fill-rule="nonzero" fill="rgb(41.96167%, 68.232727%, 83.921814%)" fill-opacity="1" stroke-width="1.19553" stroke-linecap="butt" stroke-linejoin="miter" stroke="rgb(41.96167%, 68.232727%, 83.921814%)" stroke-opacity="1" stroke-miterlimit="10" d="M -49.198719 -56.927281 C -49.198719 -55.825719 -50.089344 -54.935094 -51.190906 -54.935094 C -52.292469 -54.935094 -53.183094 -55.825719 -53.183094 -56.927281 C -53.183094 -58.028844 -52.292469 -58.919469 -51.190906 -58.919469 C -50.089344 -58.919469 -49.198719 -58.028844 -49.198719 -56.927281 Z M -49.198719 -56.927281 " transform="matrix(1, 0, 0, -1, 138.312, 3.811)"/>
<path fill-rule="nonzero" fill="rgb(41.96167%, 68.232727%, 83.921814%)" fill-opacity="1" stroke-width="1.19553" stroke-linecap="butt" stroke-linejoin="miter" stroke="rgb(41.96167%, 68.232727%, 83.921814%)" stroke-opacity="1" stroke-miterlimit="10" d="M -56.757313 -56.53275 C -56.757313 -55.431188 -57.647938 -54.540563 -58.7495 -54.540563 C -59.847156 -54.540563 -60.741688 -55.431188 -60.741688 -56.53275 C -60.741688 -57.634313 -59.847156 -58.524938 -58.7495 -58.524938 C -57.647938 -58.524938 -56.757313 -57.634313 -56.757313 -56.53275 Z M -56.757313 -56.53275 " transform="matrix(1, 0, 0, -1, 138.312, 3.811)"/>
<path fill-rule="nonzero" fill="rgb(41.96167%, 68.232727%, 83.921814%)" fill-opacity="1" stroke-width="1.19553" stroke-linecap="butt" stroke-linejoin="miter" stroke="rgb(41.96167%, 68.232727%, 83.921814%)" stroke-opacity="1" stroke-miterlimit="10" d="M -64.315906 -55.97025 C -64.315906 -54.868688 -65.206531 -53.978063 -66.308094 -53.978063 C -67.409656 -53.978063 -68.300281 -54.868688 -68.300281 -55.97025 C -68.300281 -57.067906 -67.409656 -57.962438 -66.308094 -57.962438 C -65.206531 -57.962438 -64.315906 -57.067906 -64.315906 -55.97025 Z M -64.315906 -55.97025 " transform="matrix(1, 0, 0, -1, 138.312, 3.811)"/>
<path fill-rule="nonzero" fill="rgb(41.96167%, 68.232727%, 83.921814%)" fill-opacity="1" stroke-width="1.19553" stroke-linecap="butt" stroke-linejoin="miter" stroke="rgb(41.96167%, 68.232727%, 83.921814%)" stroke-opacity="1" stroke-miterlimit="10" d="M -71.8745 -55.255406 C -71.8745 -54.15775 -72.765125 -53.263219 -73.866688 -53.263219 C -74.96825 -53.263219 -75.858875 -54.15775 -75.858875 -55.255406 C -75.858875 -56.356969 -74.96825 -57.247594 -73.866688 -57.247594 C -72.765125 -57.247594 -71.8745 -56.356969 -71.8745 -55.255406 Z M -71.8745 -55.255406 " transform="matrix(1, 0, 0, -1, 138.312, 3.811)"/>
<path fill-rule="nonzero" fill="rgb(41.96167%, 68.232727%, 83.921814%)" fill-opacity="1" stroke-width="1.19553" stroke-linecap="butt" stroke-linejoin="miter" stroke="rgb(41.96167%, 68.232727%, 83.921814%)" stroke-opacity="1" stroke-miterlimit="10" d="M -79.433094 -54.497594 C -79.433094 -53.396031 -80.323719 -52.505406 -81.425281 -52.505406 C -82.526844 -52.505406 -83.417469 -53.396031 -83.417469 -54.497594 C -83.417469 -55.599156 -82.526844 -56.489781 -81.425281 -56.489781 C -80.323719 -56.489781 -79.433094 -55.599156 -79.433094 -54.497594 Z M -79.433094 -54.497594 " transform="matrix(1, 0, 0, -1, 138.312, 3.811)"/>
<path fill-rule="nonzero" fill="rgb(41.96167%, 68.232727%, 83.921814%)" fill-opacity="1" stroke-width="1.19553" stroke-linecap="butt" stroke-linejoin="miter" stroke="rgb(41.96167%, 68.232727%, 83.921814%)" stroke-opacity="1" stroke-miterlimit="10" d="M -86.991688 -53.78275 C -86.991688 -52.681188 -87.882313 -51.790563 -88.983875 -51.790563 C -90.085438 -51.790563 -90.976063 -52.681188 -90.976063 -53.78275 C -90.976063 -54.884313 -90.085438 -55.774938 -88.983875 -55.774938 C -87.882313 -55.774938 -86.991688 -54.884313 -86.991688 -53.78275 Z M -86.991688 -53.78275 " transform="matrix(1, 0, 0, -1, 138.312, 3.811)"/>
<path fill-rule="nonzero" fill="rgb(19.216919%, 50.979614%, 74.116516%)" fill-opacity="1" d="M 126.910156 58.125 C 126.910156 57.023438 126.019531 56.132812 124.917969 56.132812 C 123.816406 56.132812 122.925781 57.023438 122.925781 58.125 C 122.925781 59.222656 123.816406 60.117188 124.917969 60.117188 C 126.019531 60.117188 126.910156 59.222656 126.910156 58.125 Z M 126.910156 58.125 "/>
<g clip-path="url(#clip-9)">
<path fill="none" stroke-width="1.19553" stroke-linecap="butt" stroke-linejoin="miter" stroke="rgb(19.216919%, 50.979614%, 74.116516%)" stroke-opacity="1" stroke-miterlimit="10" d="M -11.401844 -54.314 C -11.401844 -53.212438 -12.292469 -52.321813 -13.394031 -52.321813 C -14.495594 -52.321813 -15.386219 -53.212438 -15.386219 -54.314 C -15.386219 -55.411656 -14.495594 -56.306188 -13.394031 -56.306188 C -12.292469 -56.306188 -11.401844 -55.411656 -11.401844 -54.314 Z M -11.401844 -54.314 " transform="matrix(1, 0, 0, -1, 138.312, 3.811)"/>
</g>
<path fill-rule="nonzero" fill="rgb(19.216919%, 50.979614%, 74.116516%)" fill-opacity="1" d="M 119.351562 68.71875 C 119.351562 67.621094 118.460938 66.726562 117.359375 66.726562 C 116.257812 66.726562 115.367188 67.621094 115.367188 68.71875 C 115.367188 69.820312 116.257812 70.714844 117.359375 70.714844 C 118.460938 70.714844 119.351562 69.820312 119.351562 68.71875 Z M 119.351562 68.71875 "/>
<g clip-path="url(#clip-10)">
<path fill="none" stroke-width="1.19553" stroke-linecap="butt" stroke-linejoin="miter" stroke="rgb(19.216919%, 50.979614%, 74.116516%)" stroke-opacity="1" stroke-miterlimit="10" d="M -18.960438 -64.90775 C -18.960438 -63.810094 -19.851063 -62.915563 -20.952625 -62.915563 C -22.054188 -62.915563 -22.944813 -63.810094 -22.944813 -64.90775 C -22.944813 -66.009313 -22.054188 -66.903844 -20.952625 -66.903844 C -19.851063 -66.903844 -18.960438 -66.009313 -18.960438 -64.90775 Z M -18.960438 -64.90775 " transform="matrix(1, 0, 0, -1, 138.312, 3.811)"/>
</g>
<path fill-rule="nonzero" fill="rgb(19.216919%, 50.979614%, 74.116516%)" fill-opacity="1" stroke-width="1.19553" stroke-linecap="butt" stroke-linejoin="miter" stroke="rgb(19.216919%, 50.979614%, 74.116516%)" stroke-opacity="1" stroke-miterlimit="10" d="M -26.519031 -76.892125 C -26.519031 -75.790563 -27.413563 -74.899938 -28.511219 -74.899938 C -29.612781 -74.899938 -30.503406 -75.790563 -30.503406 -76.892125 C -30.503406 -77.993688 -29.612781 -78.884313 -28.511219 -78.884313 C -27.413563 -78.884313 -26.519031 -77.993688 -26.519031 -76.892125 Z M -26.519031 -76.892125 " transform="matrix(1, 0, 0, -1, 138.312, 3.811)"/>
<path fill-rule="nonzero" fill="rgb(19.216919%, 50.979614%, 74.116516%)" fill-opacity="1" stroke-width="1.19553" stroke-linecap="butt" stroke-linejoin="miter" stroke="rgb(19.216919%, 50.979614%, 74.116516%)" stroke-opacity="1" stroke-miterlimit="10" d="M -34.077625 -89.458531 C -34.077625 -88.356969 -34.972156 -87.466344 -36.073719 -87.466344 C -37.171375 -87.466344 -38.065906 -88.356969 -38.065906 -89.458531 C -38.065906 -90.556188 -37.171375 -91.450719 -36.073719 -91.450719 C -34.972156 -91.450719 -34.077625 -90.556188 -34.077625 -89.458531 Z M -34.077625 -89.458531 " transform="matrix(1, 0, 0, -1, 138.312, 3.811)"/>
<path fill-rule="nonzero" fill="rgb(19.216919%, 50.979614%, 74.116516%)" fill-opacity="1" stroke-width="1.19553" stroke-linecap="butt" stroke-linejoin="miter" stroke="rgb(19.216919%, 50.979614%, 74.116516%)" stroke-opacity="1" stroke-miterlimit="10" d="M -41.640125 -100.466344 C -41.640125 -99.368688 -42.53075 -98.474156 -43.632313 -98.474156 C -44.729969 -98.474156 -45.6245 -99.368688 -45.6245 -100.466344 C -45.6245 -101.567906 -44.729969 -102.458531 -43.632313 -102.458531 C -42.53075 -102.458531 -41.640125 -101.567906 -41.640125 -100.466344 Z M -41.640125 -100.466344 " transform="matrix(1, 0, 0, -1, 138.312, 3.811)"/>
<path fill-rule="nonzero" fill="rgb(19.216919%, 50.979614%, 74.116516%)" fill-opacity="1" stroke-width="1.19553" stroke-linecap="butt" stroke-linejoin="miter" stroke="rgb(19.216919%, 50.979614%, 74.116516%)" stroke-opacity="1" stroke-miterlimit="10" d="M -49.198719 -105.84525 C -49.198719 -104.747594 -50.089344 -103.853063 -51.190906 -103.853063 C -52.292469 -103.853063 -53.183094 -104.747594 -53.183094 -105.84525 C -53.183094 -106.946813 -52.292469 -107.841344 -51.190906 -107.841344 C -50.089344 -107.841344 -49.198719 -106.946813 -49.198719 -105.84525 Z M -49.198719 -105.84525 " transform="matrix(1, 0, 0, -1, 138.312, 3.811)"/>
<path fill-rule="nonzero" fill="rgb(19.216919%, 50.979614%, 74.116516%)" fill-opacity="1" stroke-width="1.19553" stroke-linecap="butt" stroke-linejoin="miter" stroke="rgb(19.216919%, 50.979614%, 74.116516%)" stroke-opacity="1" stroke-miterlimit="10" d="M -56.757313 -104.868688 C -56.757313 -103.767125 -57.647938 -102.8765 -58.7495 -102.8765 C -59.847156 -102.8765 -60.741688 -103.767125 -60.741688 -104.868688 C -60.741688 -105.97025 -59.847156 -106.860875 -58.7495 -106.860875 C -57.647938 -106.860875 -56.757313 -105.97025 -56.757313 -104.868688 Z M -56.757313 -104.868688 " transform="matrix(1, 0, 0, -1, 138.312, 3.811)"/>
<path fill-rule="nonzero" fill="rgb(19.216919%, 50.979614%, 74.116516%)" fill-opacity="1" stroke-width="1.19553" stroke-linecap="butt" stroke-linejoin="miter" stroke="rgb(19.216919%, 50.979614%, 74.116516%)" stroke-opacity="1" stroke-miterlimit="10" d="M -64.315906 -103.774938 C -64.315906 -102.673375 -65.206531 -101.78275 -66.308094 -101.78275 C -67.409656 -101.78275 -68.300281 -102.673375 -68.300281 -103.774938 C -68.300281 -104.8765 -67.409656 -105.767125 -66.308094 -105.767125 C -65.206531 -105.767125 -64.315906 -104.8765 -64.315906 -103.774938 Z M -64.315906 -103.774938 " transform="matrix(1, 0, 0, -1, 138.312, 3.811)"/>
<path fill-rule="nonzero" fill="rgb(19.216919%, 50.979614%, 74.116516%)" fill-opacity="1" stroke-width="1.19553" stroke-linecap="butt" stroke-linejoin="miter" stroke="rgb(19.216919%, 50.979614%, 74.116516%)" stroke-opacity="1" stroke-miterlimit="10" d="M -71.8745 -99.962438 C -71.8745 -98.860875 -72.765125 -97.97025 -73.866688 -97.97025 C -74.96825 -97.97025 -75.858875 -98.860875 -75.858875 -99.962438 C -75.858875 -101.064 -74.96825 -101.954625 -73.866688 -101.954625 C -72.765125 -101.954625 -71.8745 -101.064 -71.8745 -99.962438 Z M -71.8745 -99.962438 " transform="matrix(1, 0, 0, -1, 138.312, 3.811)"/>
<path fill-rule="nonzero" fill="rgb(19.216919%, 50.979614%, 74.116516%)" fill-opacity="1" stroke-width="1.19553" stroke-linecap="butt" stroke-linejoin="miter" stroke="rgb(19.216919%, 50.979614%, 74.116516%)" stroke-opacity="1" stroke-miterlimit="10" d="M -79.433094 -97.259313 C -79.433094 -96.15775 -80.323719 -95.267125 -81.425281 -95.267125 C -82.526844 -95.267125 -83.417469 -96.15775 -83.417469 -97.259313 C -83.417469 -98.360875 -82.526844 -99.2515 -81.425281 -99.2515 C -80.323719 -99.2515 -79.433094 -98.360875 -79.433094 -97.259313 Z M -79.433094 -97.259313 " transform="matrix(1, 0, 0, -1, 138.312, 3.811)"/>
<path fill-rule="nonzero" fill="rgb(19.216919%, 50.979614%, 74.116516%)" fill-opacity="1" stroke-width="1.19553" stroke-linecap="butt" stroke-linejoin="miter" stroke="rgb(19.216919%, 50.979614%, 74.116516%)" stroke-opacity="1" stroke-miterlimit="10" d="M -86.991688 -91.634313 C -86.991688 -90.536656 -87.882313 -89.642125 -88.983875 -89.642125 C -90.085438 -89.642125 -90.976063 -90.536656 -90.976063 -91.634313 C -90.976063 -92.735875 -90.085438 -93.630406 -88.983875 -93.630406 C -87.882313 -93.630406 -86.991688 -92.735875 -86.991688 -91.634313 Z M -86.991688 -91.634313 " transform="matrix(1, 0, 0, -1, 138.312, 3.811)"/>
<path fill-rule="nonzero" fill="rgb(3.135681%, 31.765747%, 61.175537%)" fill-opacity="1" d="M 126.910156 58.136719 C 126.910156 57.035156 126.019531 56.144531 124.917969 56.144531 C 123.816406 56.144531 122.925781 57.035156 122.925781 58.136719 C 122.925781 59.234375 123.816406 60.128906 124.917969 60.128906 C 126.019531 60.128906 126.910156 59.234375 126.910156 58.136719 Z M 126.910156 58.136719 "/>
<g clip-path="url(#clip-11)">
<path fill="none" stroke-width="1.19553" stroke-linecap="butt" stroke-linejoin="miter" stroke="rgb(3.135681%, 31.765747%, 61.175537%)" stroke-opacity="1" stroke-miterlimit="10" d="M -11.401844 -54.325719 C -11.401844 -53.224156 -12.292469 -52.333531 -13.394031 -52.333531 C -14.495594 -52.333531 -15.386219 -53.224156 -15.386219 -54.325719 C -15.386219 -55.423375 -14.495594 -56.317906 -13.394031 -56.317906 C -12.292469 -56.317906 -11.401844 -55.423375 -11.401844 -54.325719 Z M -11.401844 -54.325719 " transform="matrix(1, 0, 0, -1, 138.312, 3.811)"/>
</g>
<path fill-rule="nonzero" fill="rgb(3.135681%, 31.765747%, 61.175537%)" fill-opacity="1" d="M 119.351562 68.816406 C 119.351562 67.714844 118.460938 66.824219 117.359375 66.824219 C 116.257812 66.824219 115.367188 67.714844 115.367188 68.816406 C 115.367188 69.917969 116.257812 70.808594 117.359375 70.808594 C 118.460938 70.808594 119.351562 69.917969 119.351562 68.816406 Z M 119.351562 68.816406 "/>
<g clip-path="url(#clip-12)">
<path fill="none" stroke-width="1.19553" stroke-linecap="butt" stroke-linejoin="miter" stroke="rgb(3.135681%, 31.765747%, 61.175537%)" stroke-opacity="1" stroke-miterlimit="10" d="M -18.960438 -65.005406 C -18.960438 -63.903844 -19.851063 -63.013219 -20.952625 -63.013219 C -22.054188 -63.013219 -22.944813 -63.903844 -22.944813 -65.005406 C -22.944813 -66.106969 -22.054188 -66.997594 -20.952625 -66.997594 C -19.851063 -66.997594 -18.960438 -66.106969 -18.960438 -65.005406 Z M -18.960438 -65.005406 " transform="matrix(1, 0, 0, -1, 138.312, 3.811)"/>
</g>
<path fill-rule="nonzero" fill="rgb(3.135681%, 31.765747%, 61.175537%)" fill-opacity="1" stroke-width="1.19553" stroke-linecap="butt" stroke-linejoin="miter" stroke="rgb(3.135681%, 31.765747%, 61.175537%)" stroke-opacity="1" stroke-miterlimit="10" d="M -26.519031 -77.360875 C -26.519031 -76.259313 -27.413563 -75.368688 -28.511219 -75.368688 C -29.612781 -75.368688 -30.503406 -76.259313 -30.503406 -77.360875 C -30.503406 -78.458531 -29.612781 -79.353063 -28.511219 -79.353063 C -27.413563 -79.353063 -26.519031 -78.458531 -26.519031 -77.360875 Z M -26.519031 -77.360875 " transform="matrix(1, 0, 0, -1, 138.312, 3.811)"/>
<path fill-rule="nonzero" fill="rgb(3.135681%, 31.765747%, 61.175537%)" fill-opacity="1" stroke-width="1.19553" stroke-linecap="butt" stroke-linejoin="miter" stroke="rgb(3.135681%, 31.765747%, 61.175537%)" stroke-opacity="1" stroke-miterlimit="10" d="M -34.077625 -90.872594 C -34.077625 -89.774938 -34.972156 -88.880406 -36.073719 -88.880406 C -37.171375 -88.880406 -38.065906 -89.774938 -38.065906 -90.872594 C -38.065906 -91.974156 -37.171375 -92.864781 -36.073719 -92.864781 C -34.972156 -92.864781 -34.077625 -91.974156 -34.077625 -90.872594 Z M -34.077625 -90.872594 " transform="matrix(1, 0, 0, -1, 138.312, 3.811)"/>
<path fill-rule="nonzero" fill="rgb(3.135681%, 31.765747%, 61.175537%)" fill-opacity="1" stroke-width="1.19553" stroke-linecap="butt" stroke-linejoin="miter" stroke="rgb(3.135681%, 31.765747%, 61.175537%)" stroke-opacity="1" stroke-miterlimit="10" d="M -41.640125 -104.884313 C -41.640125 -103.78275 -42.53075 -102.888219 -43.632313 -102.888219 C -44.729969 -102.888219 -45.6245 -103.78275 -45.6245 -104.884313 C -45.6245 -105.981969 -44.729969 -106.8765 -43.632313 -106.8765 C -42.53075 -106.8765 -41.640125 -105.981969 -41.640125 -104.884313 Z M -41.640125 -104.884313 " transform="matrix(1, 0, 0, -1, 138.312, 3.811)"/>
<path fill-rule="nonzero" fill="rgb(3.135681%, 31.765747%, 61.175537%)" fill-opacity="1" stroke-width="1.19553" stroke-linecap="butt" stroke-linejoin="miter" stroke="rgb(3.135681%, 31.765747%, 61.175537%)" stroke-opacity="1" stroke-miterlimit="10" d="M -49.198719 -116.642125 C -49.198719 -115.544469 -50.089344 -114.649938 -51.190906 -114.649938 C -52.292469 -114.649938 -53.183094 -115.544469 -53.183094 -116.642125 C -53.183094 -117.743688 -52.292469 -118.634313 -51.190906 -118.634313 C -50.089344 -118.634313 -49.198719 -117.743688 -49.198719 -116.642125 Z M -49.198719 -116.642125 " transform="matrix(1, 0, 0, -1, 138.312, 3.811)"/>
<path fill-rule="nonzero" fill="rgb(3.135681%, 31.765747%, 61.175537%)" fill-opacity="1" stroke-width="1.19553" stroke-linecap="butt" stroke-linejoin="miter" stroke="rgb(3.135681%, 31.765747%, 61.175537%)" stroke-opacity="1" stroke-miterlimit="10" d="M -56.757313 -122.954625 C -56.757313 -121.853063 -57.647938 -120.962438 -58.7495 -120.962438 C -59.847156 -120.962438 -60.741688 -121.853063 -60.741688 -122.954625 C -60.741688 -124.056188 -59.847156 -124.946813 -58.7495 -124.946813 C -57.647938 -124.946813 -56.757313 -124.056188 -56.757313 -122.954625 Z M -56.757313 -122.954625 " transform="matrix(1, 0, 0, -1, 138.312, 3.811)"/>
<path fill-rule="nonzero" fill="rgb(3.135681%, 31.765747%, 61.175537%)" fill-opacity="1" stroke-width="1.19553" stroke-linecap="butt" stroke-linejoin="miter" stroke="rgb(3.135681%, 31.765747%, 61.175537%)" stroke-opacity="1" stroke-miterlimit="10" d="M -64.315906 -121.59525 C -64.315906 -120.497594 -65.206531 -119.603063 -66.308094 -119.603063 C -67.409656 -119.603063 -68.300281 -120.497594 -68.300281 -121.59525 C -68.300281 -122.696813 -67.409656 -123.587438 -66.308094 -123.587438 C -65.206531 -123.587438 -64.315906 -122.696813 -64.315906 -121.59525 Z M -64.315906 -121.59525 " transform="matrix(1, 0, 0, -1, 138.312, 3.811)"/>
<path fill-rule="nonzero" fill="rgb(3.135681%, 31.765747%, 61.175537%)" fill-opacity="1" stroke-width="1.19553" stroke-linecap="butt" stroke-linejoin="miter" stroke="rgb(3.135681%, 31.765747%, 61.175537%)" stroke-opacity="1" stroke-miterlimit="10" d="M -71.8745 -117.915563 C -71.8745 -116.817906 -72.765125 -115.923375 -73.866688 -115.923375 C -74.96825 -115.923375 -75.858875 -116.817906 -75.858875 -117.915563 C -75.858875 -119.017125 -74.96825 -119.90775 -73.866688 -119.90775 C -72.765125 -119.90775 -71.8745 -119.017125 -71.8745 -117.915563 Z M -71.8745 -117.915563 " transform="matrix(1, 0, 0, -1, 138.312, 3.811)"/>
<path fill-rule="nonzero" fill="rgb(3.135681%, 31.765747%, 61.175537%)" fill-opacity="1" stroke-width="1.19553" stroke-linecap="butt" stroke-linejoin="miter" stroke="rgb(3.135681%, 31.765747%, 61.175537%)" stroke-opacity="1" stroke-miterlimit="10" d="M -79.433094 -114.731969 C -79.433094 -113.634313 -80.323719 -112.739781 -81.425281 -112.739781 C -82.526844 -112.739781 -83.417469 -113.634313 -83.417469 -114.731969 C -83.417469 -115.833531 -82.526844 -116.724156 -81.425281 -116.724156 C -80.323719 -116.724156 -79.433094 -115.833531 -79.433094 -114.731969 Z M -79.433094 -114.731969 " transform="matrix(1, 0, 0, -1, 138.312, 3.811)"/>
<path fill-rule="nonzero" fill="rgb(3.135681%, 31.765747%, 61.175537%)" fill-opacity="1" stroke-width="1.19553" stroke-linecap="butt" stroke-linejoin="miter" stroke="rgb(3.135681%, 31.765747%, 61.175537%)" stroke-opacity="1" stroke-miterlimit="10" d="M -86.991688 -111.450719 C -86.991688 -110.349156 -87.882313 -109.458531 -88.983875 -109.458531 C -90.085438 -109.458531 -90.976063 -110.349156 -90.976063 -111.450719 C -90.976063 -112.552281 -90.085438 -113.442906 -88.983875 -113.442906 C -87.882313 -113.442906 -86.991688 -112.552281 -86.991688 -111.450719 Z M -86.991688 -111.450719 " transform="matrix(1, 0, 0, -1, 138.312, 3.811)"/>
<g fill="rgb(0%, 0%, 0%)" fill-opacity="1">
<use xlink:href="#glyph-0-2" x="80.742" y="164.024"/>
</g>
<g fill="rgb(0%, 0%, 0%)" fill-opacity="1">
<use xlink:href="#glyph-3-0" x="88.421" y="164.024"/>
</g>
<g fill="rgb(0%, 0%, 0%)" fill-opacity="1">
<use xlink:href="#glyph-4-0" x="10.045" y="105.066"/>
</g>
<g fill="rgb(0%, 0%, 0%)" fill-opacity="1">
<use xlink:href="#glyph-5-0" x="10.045" y="97.386"/>
</g>
<g fill="rgb(0%, 0%, 0%)" fill-opacity="1">
<use xlink:href="#glyph-5-1" x="10.045" y="90.093627"/>
<use xlink:href="#glyph-5-0" x="10.045" y="85.485794"/>
</g>
<g fill="rgb(0%, 0%, 0%)" fill-opacity="1">
<use xlink:href="#glyph-6-0" x="11.041" y="78.705"/>
<use xlink:href="#glyph-6-1" x="11.041" y="75.439437"/>
<use xlink:href="#glyph-6-2" x="11.041" y="71.592852"/>
<use xlink:href="#glyph-6-3" x="11.041" y="67.93994"/>
<use xlink:href="#glyph-6-4" x="11.041" y="64.674377"/>
</g>
<g fill="rgb(0%, 0%, 0%)" fill-opacity="1">
<use xlink:href="#glyph-7-0" x="57.879" y="15.441"/>
<use xlink:href="#glyph-7-1" x="64.930147" y="15.441"/>
</g>
<g fill="rgb(0%, 0%, 0%)" fill-opacity="1">
<use xlink:href="#glyph-7-2" x="75.850778" y="15.441"/>
</g>
<g fill="rgb(0%, 0%, 0%)" fill-opacity="1">
<use xlink:href="#glyph-7-3" x="82.946559" y="15.441"/>
</g>
<g fill="rgb(0%, 0%, 0%)" fill-opacity="1">
<use xlink:href="#glyph-7-4" x="83.149796" y="15.441"/>
<use xlink:href="#glyph-7-5" x="87.621819" y="15.441"/>
</g>
<g fill="rgb(0%, 0%, 0%)" fill-opacity="1">
<use xlink:href="#glyph-7-6" x="92.775286" y="15.441"/>
<use xlink:href="#glyph-7-7" x="97.927955" y="15.441"/>
<use xlink:href="#glyph-7-8" x="100.640181" y="15.441"/>
<use xlink:href="#glyph-7-9" x="103.894372" y="15.441"/>
<use xlink:href="#glyph-7-10" x="108.776059" y="15.441"/>
<use xlink:href="#glyph-7-11" x="111.488284" y="15.441"/>
</g>
</svg>
